<?xml version="1.0" encoding="utf-8"?>
<!-- Generator: Adobe Illustrator 24.3.0, SVG Export Plug-In . SVG Version: 6.00 Build 0)  -->
<svg version="1.1" xmlns="http://www.w3.org/2000/svg" xmlns:xlink="http://www.w3.org/1999/xlink" x="0px" y="0px"
	 viewBox="0 0 1920 1080" style="enable-background:new 0 0 1920 1080;" xml:space="preserve">
<style type="text/css">
	.st0{fill:url(#SVGID_1_);}
	.st1{opacity:0.18;}
	.st2{fill:#FFFFFF;}
	.st3{fill:#DCDCDC;}
</style>
<g id="BACKGROUND">
	<linearGradient id="SVGID_1_" gradientUnits="userSpaceOnUse" x1="-128.5255" y1="185.5746" x2="2249.0063" y2="959.7023">
		<stop  offset="0.0782" style="stop-color:#ED1C24"/>
		<stop  offset="0.4804" style="stop-color:#FF00FF"/>
		<stop  offset="0.9162" style="stop-color:#150F4D"/>
	</linearGradient>
	<rect class="st0" width="1920" height="1080"/>
</g>
<g id="OBJECK">
	<g class="st1">
		<rect x="-0.21" y="4.23" class="st2" width="1920.21" height="1075.77"/>
		<path class="st3" d="M1920,615.78v449.3c-10.54,5.9-21.96,10.88-33.88,14.91h-189.13c-20.23-3.98-40.39-8.42-60.46-12.53
			c-63.69-13.03-131.66-22.78-193.65-5c-16.87,4.84-33.74,11.71-50.66,17.52h-97.57c-22.99-13.73-37.37-38.29-40.63-62.62
			c-4.18-31.22,6.3-62.35,17.06-92.37c10.76-30.02,22.03-60.81,19.53-92.15c-3.56-44.11-36.68-85.69-83.54-104.85
			c-31.48-12.86-72.37-19.39-85.71-46.85c-13.21-27.18,12.64-58.79,45.06-68.79c11.61-3.57,27.95-3.52,45.7-1.72
			c39.5,3.99,79.03-8.19,105.18-33.63c0.94-0.92,1.88-1.84,2.79-2.77c17.01-17.19,37.68-39.18,63.36-33.81
			c23.17,4.85,31.81,30.04,27.49,49.99c-5.05,23.31-22.36,44.46-46.29,56.55c-18.4,9.31-41.77,14.57-52.01,30.59
			c-10.38,16.21-2.04,37.19,12.7,50.79c14.73,13.61,34.7,22.04,52.81,32.29c18.09,10.26,35.56,23.83,40.29,41.89
			c10.43,39.68-43.33,70.6-52.17,110.52c-4.25,19.22,3,40.07,18.92,54.21c15.91,14.16,40.04,21.27,62.79,18.49
			c32.71-3.98,59.17-26.39,91.86-30.47c43.51-5.42,81.77,22.15,120.21,40.46c40.19,19.12,86.3,29.12,132.29,28.65
			c21.91-0.22,45.07-3.24,61.87-15.2c20.53-14.65,26.82-39.1,29.17-61.83c4.54-44.12-1.12-89.01-16.57-131.34
			c-9.83-26.94-23.58-52.86-31.21-80.3c-7.65-27.44-8.68-57.52,6.26-82.63C1856.3,628.77,1888.7,610.99,1920,615.78z"/>
		<path class="st3" d="M955.88,665.09c-16.19,33.13-55.76,58.49-100.3,64.3c-44.55,5.8-92.41-8.2-121.32-35.46
			c-28.22-26.6-38.18-63.3-68.37-88.53c-47.13-39.41-127.1-38.5-194-25.85c-66.91,12.64-134.11,34.25-202.15,26.18
			c-23.36-2.77-48.41-10.71-57.99-27.66c-7.58-13.38-3.37-29.42,6.22-41.97c9.59-12.56,23.92-22.36,37.92-32.02
			c29.2-20.14,58.49-41.11,77.89-67.56c19.39-26.47,27.66-59.7,12.58-87.84c-18.84-35.14-71.8-61.83-64.31-99.51
			c6.72-33.81,60.25-52.19,67.88-85.88c7.88-34.81-39.01-67.88-27.49-102.04c9.4-27.87,29.32-45.75,53.41-57h192.96
			c46.29,19.65,86.27,54.5,102.5,90.82c22.83,51.1-8.65,116.64-73.94,133.93c-16.26,4.31-34.43,5.55-50.45,0.72
			c-16.02-4.85-29.21-16.64-29.98-30.12c-1.09-19.2,20.75-33.57,33.78-49.83c21.82-27.2,15.99-67.94-17.65-86.25
			c-33.64-18.3-89.85-3.43-96.58,28.3c-4.94,23.28,14.79,46.38,10.77,69.77c-7.26,42.22-86.23,64.45-80.39,106.81
			c3.79,27.34,41.16,42.34,73.06,53.66s68.08,30.14,65.51,57.57c-2.37,25.4-36.3,40.08-64.49,52.61
			c-28.2,12.53-58.37,35.32-47.41,59.28c7.43,16.26,31.73,24.23,53.7,23.96c21.99-0.28,42.97-6.73,64.42-10.5
			c54.87-9.65,114.58-1.01,161.49,23.35c30.35,15.78,56.8,38.23,92.27,44.64c51.49,9.32,109.26-17.82,156.24,1.14
			C960.88,589.94,971.68,632.75,955.88,665.09z"/>
		<path class="st3" d="M1302.62,234.39c-16.09,49.5-2.22,101.59,1.75,152.65c3.95,51.06-5.73,108.21-55.41,141.06
			c-35.17,23.26-83.67,29.56-129.71,30.34c-44.25,0.75-95.52-6.02-117.9-36.12c-14.16-19.04-12.72-42.61-9.01-64.41
			c14.65-86,57.91-168.83,58.61-255.63c0.16-18.79-1.87-38.11-12.12-55.12c-10.26-17.02-30.15-31.43-53.9-33.65
			c-34.34-3.21-64.76,19.53-77.64,44.7c-16.72,32.71-12.65,69.69-3.61,104.3c9.03,34.6,22.78,68.74,24.72,104.01
			c1.94,35.27-10.05,73.18-44.07,96.09c-39.02,26.3-97.63,26.59-146.64,13.97c-76.26-19.62-142.57-73.06-145.76-136.03
			c-1.34-26.21,14.46-57.24,47.42-61.19c19.98-2.39,40.57,6.36,52.36,19.32c36.08,39.65,2.5,111.73,63.02,101.82
			c35.89-5.88,10.67-40.85,6.28-56.33c-4.82-16.94,4.36-34.44,16.57-48.85c12.2-14.41,27.62-27.18,37.7-42.58
			c21.62-33.05,15.61-72.6,10.91-109.66c-4.69-37.06-6.31-77.74,21.69-107.67c13.27-14.18,31.64-24.16,52.23-31.19h170.79
			c30.37,17.09,44.19,47.18,51.84,75.96c17.5,65.87,11.77,135.39-16.38,198.78c-11.19,25.19-25.94,49.77-30.12,76.27
			c-4.19,26.5,4.63,56.39,32.14,72.16c34.88,20.01,87.61,8.73,115.27-17.15c27.65-25.89,34.89-61.77,34.01-95.64
			c-1.11-42.33-13.12-84.02-18.89-126.13c-5.77-42.12-4.84-86.35,18.36-124.49c9.98-16.42,24.58-31.77,45-40.32
			c20.42-8.56,47.34-9.02,65.72,2.14c28.81,17.49,24.82,52.66,11.59,79.22C1357.29,149.46,1317.66,188.17,1302.62,234.39z"/>
		<path class="st3" d="M619.41,750.84c-6.42,40.18-53.12,74.16-104.62,75.54c-40.86,1.1-78.62-15.77-118.41-23.2
			c-111.11-20.73-235.93,32.23-338.31-7.54c-23.03-8.95-42.63-22.17-58.29-38.03v-222.4c3.1-4.34,6.32-8.62,9.65-12.83
			c23.4-29.53,53.15-57.92,59.28-92.36c5.77-32.35-10.48-64.53-29.21-93.69c-12.65-19.69-26.59-38.89-39.72-58.38V55.04
			c20.76-13.9,46.49-22.52,73.73-22.01c58.19,1.1,106.67,46.34,104.39,92.06c-1.19,23.91-14.66,46.35-35.33,63.9
			c-43.7,37.11-50.09,92.75-14.05,134.63c0.3,0.34,0.59,0.68,0.89,1.03c23.55,26.96,56.55,50.86,64.41,82.98
			c10.6,43.26-27.85,83.57-64.2,117.11c-36.34,33.54-75.39,73.21-66.21,116.67c7.77,36.83,50.69,64.7,97,73.04
			c46.29,8.35,94.98,0.39,139.66-12.28c44.69-12.67,87.13-30,132.4-41.33c35.74-8.95,74.88-13.99,110.48-4.69
			C591.85,668.93,625.85,710.66,619.41,750.84z"/>
		<path class="st3" d="M1041.14,1044.13c-39.67,17.94-82.53,29.21-126.83,35.87H622.06c-67.13-4.67-134.22-8.8-201.28-4.59
			c-17.41,1.09-34.75,2.74-52.06,4.59H114.16c-46.91-13.26-89.86-39.63-111.18-76.81c-1.14-2-2.21-4.02-3.19-6.07v-82.2
			c5.29-10.93,12.8-21.1,22.54-29.85c42.91-38.61,93.68-28.6,107.86,5.03c14.43,34.18-23.84,58.19,8.63,89.69
			c19.53,18.95,48.77,21.43,74.79,19.45c35.47-2.71,63.52-25.98,84.19-50.16c20.66-24.19,38.03-51.34,66.61-69.07
			c28.58-17.72,73.59-22.09,97.21,0.13c29.2,27.5,7.28,73.01,26.86,105.91c19.23,32.3,70.95,40.37,113.69,34.8
			c96.74-12.63,183.55-73.33,280.81-63.93c38.78,3.75,75.99,18.72,114.97,16.84c35.08-1.69,68.72-17.99,87.81-42.59
			c12.34-15.89,16.33-40.79-2.9-50.89c-12.75-6.69-29.85-3.22-42.69,3.36c-12.83,6.58-23.46,15.95-36.68,21.97
			c-53.99,24.63-119.37-15.01-180.62-9.88c-57.81,4.84-99.75,47.9-153.84,65.56c-32.21,10.52-76.07,8.29-92.52-17.05
			c-17.14-26.41,6.74-58.77,34.91-77.47c42.56-28.22,97.65-43,151.98-40.77c40.05,1.64,78.84,12.11,118.69,15.93
			c39.84,3.83,83.87-0.24,113.17-23.08c25.69-20.03,37.21-52.28,68.22-66.12c26.8-11.96,61.78-5.57,84.7,11.07
			c22.91,16.65,35.06,41.66,39.6,66.71C1203.42,916.96,1133.33,1002.44,1041.14,1044.13z"/>
		<path class="st3" d="M1920,62.65v450.02c-35.51,7.69-69.21-20.59-58.93-51.4c15.58-46.75,0.08-101.47-43.33-133.99
			c-18.91-14.16-41.68-24.13-61.55-37.3c-19.89-13.16-37.63-31.05-39.94-52.31c-3.69-33.79,32.07-64.19,27.72-97.93
			c-2.53-19.64-19.09-36.76-39.78-45.98s-44.99-11.32-68.29-9.56c-52.06,3.94-101.66,27.2-133.14,62.43
			c-31.49,35.23-44.37,81.89-34.59,125.25c12.52,55.47,58.31,100.55,98.73,145.52c40.44,44.97,78.6,97.58,71.74,153.74
			c-3.66,29.83-19.8,57.4-36.08,84.04c-16.29,26.64-33.21,53.74-38.63,83.37c-5.43,29.62,2.8,62.87,29.85,82.29
			c27.05,19.42,74.64,18.11,93.48-7.29c17.74-23.93,4.57-55.22-11.06-80.17c-15.64-24.96-35.8-52.87-25.44-79.72
			c15.37-39.83,81.46-48.72,73.78-135.59c-12.88-145.81-140.44-121.87-141.08-189.62c-0.24-24.25,33.25-39.13,61.95-38.32
			c28.5,0.81,55.02,12.93,74.88,30.2c74.69,64.99,95.3,219.3,5.38,356.58c-15.48,23.62,3.05,53.81,19.29,77.07
			c16.24,23.25,37.23,44.25,49.98,69.01c12.73,24.75,15.76,55.57-3.36,77.21c-15.1,17.1-41.3,25.13-66.55,25.81
			c-25.24,0.68-50.05-5-74.42-10.63c-32.81-7.59-66.45-15.5-93.87-32.5c-35.9-22.27-56.89-57.33-76.59-91.07
			c-13.45-23.01-27.01-46.34-33.27-71.45c-6.25-25.12-4.5-52.64,11.26-74.58c12.91-17.96,33.87-30.65,49.65-46.9
			c29.51-30.39,39.16-72.37,32.02-111.2c-7.16-38.83-29.76-74.72-58.47-105.63c-29.04-31.29-65.41-59.54-80.06-97.3
			c-13-33.5-6.91-70.42,6.79-103.72c26.1-63.38,79.82-118.23,148.21-152.41c19.74-9.87,40.66-18.01,62.34-24.36h227.55
			c20.32,7.27,38.82,17.44,53.34,31.44C1907.95,43.84,1914.68,52.94,1920,62.65z"/>
	</g>
</g>
<g id="Layer_3">
</g>
</svg>
