<?xml version="1.0" encoding="utf-8"?>
<!-- Generator: Adobe Illustrator 24.3.0, SVG Export Plug-In . SVG Version: 6.00 Build 0)  -->
<svg version="1.1" xmlns="http://www.w3.org/2000/svg" xmlns:xlink="http://www.w3.org/1999/xlink" x="0px" y="0px"
	 viewBox="0 0 1920 1080" style="enable-background:new 0 0 1920 1080;" xml:space="preserve">
<style type="text/css">
	.st0{fill:url(#SVGID_1_);}
	.st1{opacity:0.2;}
	.st2{fill-rule:evenodd;clip-rule:evenodd;fill:#FFFFFF;}
	.st3{clip-path:url(#SVGID_3_);fill:url(#SVGID_4_);}
	.st4{clip-path:url(#SVGID_6_);fill:url(#SVGID_7_);}
	.st5{clip-path:url(#SVGID_9_);fill:url(#SVGID_10_);}
	.st6{clip-path:url(#SVGID_12_);fill:url(#SVGID_13_);}
	.st7{clip-path:url(#SVGID_15_);fill:url(#SVGID_16_);}
	.st8{clip-path:url(#SVGID_18_);fill:url(#SVGID_19_);}
	.st9{display:none;}
	.st10{display:inline;}
	.st11{opacity:0.3;fill:url(#SVGID_20_);}
	.st12{fill:url(#SVGID_21_);}
	.st13{opacity:0.26;fill:url(#SVGID_22_);}
	.st14{opacity:0.68;}
	.st15{fill:#FFFFFF;}
	.st16{fill:url(#SVGID_23_);}
	.st17{fill:url(#SVGID_24_);}
	.st18{opacity:0.73;fill:#FFFFFF;}
	.st19{fill:url(#SVGID_25_);}
	.st20{opacity:0.64;fill:#FFFFFF;}
	.st21{fill:url(#SVGID_26_);}
	.st22{fill:url(#SVGID_27_);}
	.st23{fill:url(#SVGID_28_);}
	.st24{opacity:0.64;}
	.st25{fill:url(#SVGID_29_);}
	.st26{fill:url(#SVGID_30_);}
	.st27{fill:url(#SVGID_31_);}
	.st28{fill:url(#SVGID_32_);}
	.st29{fill:url(#SVGID_33_);}
	.st30{fill:url(#SVGID_34_);}
	.st31{fill:url(#SVGID_35_);}
	.st32{fill:url(#SVGID_36_);}
	.st33{fill:url(#SVGID_37_);}
	.st34{fill:url(#SVGID_38_);}
	.st35{fill:url(#SVGID_39_);}
	.st36{fill:url(#SVGID_40_);}
	.st37{fill:url(#SVGID_41_);}
	.st38{fill:url(#SVGID_42_);}
	.st39{fill:url(#SVGID_43_);}
	.st40{fill:url(#SVGID_44_);}
	.st41{fill:url(#SVGID_45_);}
	.st42{fill:#E78456;}
	.st43{fill:url(#SVGID_46_);}
	.st44{fill:url(#SVGID_47_);}
	.st45{fill:url(#SVGID_48_);}
	.st46{fill:url(#SVGID_49_);}
</style>
<g id="BACKGROUND">
	<linearGradient id="SVGID_1_" gradientUnits="userSpaceOnUse" x1="462.4525" y1="779.809" x2="1822.7928" y2="124.1494">
		<stop  offset="0" style="stop-color:#AA236D"/>
		<stop  offset="1" style="stop-color:#58246D"/>
	</linearGradient>
	<rect class="st0" width="1920" height="1080"/>
</g>
<g id="DESIGN">
	<g class="st1">
		<rect x="-0.04" class="st2" width="1920.04" height="1080"/>
		<g>
			<defs>
				<path id="SVGID_2_" d="M1608.31,872.5c-520.33,501.63-876.36-180.76-1464.61,8.38c-50.4,16.2-98.51,37.21-143.74,62.5V1080H1920
					V703.61C1802.17,728.75,1693.41,786.96,1608.31,872.5"/>
			</defs>
			<clipPath id="SVGID_3_">
				<use xlink:href="#SVGID_2_"  style="overflow:visible;"/>
			</clipPath>
			<linearGradient id="SVGID_4_" gradientUnits="userSpaceOnUse" x1="1812.98" y1="776.2687" x2="554.0676" y2="1155.0817">
				<stop  offset="0" style="stop-color:#B4B5B5"/>
				<stop  offset="1" style="stop-color:#FFFFFF"/>
			</linearGradient>
			<rect x="-0.04" y="691.75" class="st3" width="1920.04" height="682.39"/>
		</g>
		<g>
			<defs>
				<path id="SVGID_5_" d="M143.7,880.88c588.25-189.14,944.29,493.25,1464.61-8.38c85.09-85.54,193.86-143.76,311.69-168.9V530.19
					c-172.41-3.58-338.58,62.67-458.08,182.78c-519.55,500.88-875.29-178.7-1461.96,7.53v222.88
					C45.19,918.1,93.3,897.09,143.7,880.88"/>
			</defs>
			<clipPath id="SVGID_6_">
				<use xlink:href="#SVGID_5_"  style="overflow:visible;"/>
			</clipPath>
			<linearGradient id="SVGID_7_" gradientUnits="userSpaceOnUse" x1="99.6694" y1="845.4532" x2="1356.849" y2="998.7706">
				<stop  offset="0" style="stop-color:#C8C8C9"/>
				<stop  offset="1" style="stop-color:#FFFFFF"/>
			</linearGradient>
			<rect x="-0.04" y="526.61" class="st4" width="1920.04" height="847.53"/>
		</g>
		<g>
			<defs>
				<path id="SVGID_8_" d="M-0.04,720.51c586.67-186.24,942.42,493.35,1461.96-7.53c119.5-120.12,285.67-186.37,458.08-182.78
					V243.23c-170.86-2.39-335.26,63.75-453.75,182.86C945.92,927.72,589.88,245.33,1.63,434.47c-0.56,0.18-1.11,0.36-1.67,0.54
					V720.51z"/>
			</defs>
			<clipPath id="SVGID_9_">
				<use xlink:href="#SVGID_8_"  style="overflow:visible;"/>
			</clipPath>
			<linearGradient id="SVGID_10_" gradientUnits="userSpaceOnUse" x1="1705.5812" y1="351.2359" x2="931.8687" y2="741.524">
				<stop  offset="0" style="stop-color:#DBDCDC"/>
				<stop  offset="1" style="stop-color:#FFFFFF"/>
			</linearGradient>
			<rect x="-0.04" y="240.84" class="st5" width="1920.04" height="973.02"/>
		</g>
		<g>
			<defs>
				<path id="SVGID_11_" d="M1.63,434.47c588.25-189.14,944.29,493.25,1464.61-8.38c118.5-119.11,282.89-185.25,453.75-182.86
					V112.61c-5.1-2.48-10.23-4.89-15.4-7.24c-75.74-34.36-158.75-53.86-244.24-56.28c-174.14-4.94-342.32,61.42-462.94,182.66
					C760.68,652.81,439.68,239.69-0.04,207.94v227.07C0.52,434.83,1.07,434.65,1.63,434.47"/>
			</defs>
			<clipPath id="SVGID_12_">
				<use xlink:href="#SVGID_11_"  style="overflow:visible;"/>
			</clipPath>
			<linearGradient id="SVGID_13_" gradientUnits="userSpaceOnUse" x1="75.3777" y1="436.0622" x2="1095.8795" y2="493.6024">
				<stop  offset="0" style="stop-color:#DBDCDC"/>
				<stop  offset="1" style="stop-color:#FFFFFF"/>
			</linearGradient>
			<rect x="-0.04" y="44.16" class="st6" width="1920.04" height="883.57"/>
		</g>
		<g>
			<defs>
				<path id="SVGID_14_" d="M-0.04,207.94c439.72,31.74,760.72,444.87,1197.46,23.82c120.62-121.25,288.79-187.6,462.94-182.66
					c85.5,2.43,168.51,21.92,244.24,56.28C1867.16,64.48,1824.43,29.14,1777.8,0H1107.3c-39.55,24.72-76.36,53.94-109.57,87.32
					C629.72,442.11,343.89,204.61-0.04,102.08V207.94z"/>
			</defs>
			<clipPath id="SVGID_15_">
				<use xlink:href="#SVGID_14_"  style="overflow:visible;"/>
			</clipPath>
			<linearGradient id="SVGID_16_" gradientUnits="userSpaceOnUse" x1="1448.1621" y1="81.0697" x2="596.374" y2="502.4918">
				<stop  offset="0" style="stop-color:#C8C8C9"/>
				<stop  offset="1" style="stop-color:#FFFFFF"/>
			</linearGradient>
			<rect x="-0.04" class="st7" width="1904.64" height="652.81"/>
		</g>
		<g>
			<defs>
				<path id="SVGID_17_" d="M-0.04,102.08c343.93,102.53,629.76,340.03,997.78-14.76c33.21-33.38,70.02-62.6,109.57-87.32H-0.04
					V102.08z"/>
			</defs>
			<clipPath id="SVGID_18_">
				<use xlink:href="#SVGID_17_"  style="overflow:visible;"/>
			</clipPath>
			<linearGradient id="SVGID_19_" gradientUnits="userSpaceOnUse" x1="-78.7665" y1="161.4605" x2="653.7107" y2="230.486">
				<stop  offset="0" style="stop-color:#B4B5B5"/>
				<stop  offset="1" style="stop-color:#FFFFFF"/>
			</linearGradient>
			<rect x="-0.04" class="st8" width="1107.34" height="442.11"/>
		</g>
	</g>
</g>
<g id="OBJECK" class="st9">
	<g class="st10">
		<linearGradient id="SVGID_20_" gradientUnits="userSpaceOnUse" x1="1807.1573" y1="921.2773" x2="1222.8795" y2="410.0346">
			<stop  offset="0" style="stop-color:#B37CFF"/>
			<stop  offset="1" style="stop-color:#F895E7"/>
		</linearGradient>
		<path class="st11" d="M1707.86,655.77c-75.51,177.8-276.66,277.41-451.09,250.54c-28.38-4.37-106.2-17.4-175.1-78.84
			c-132.63-118.28-160.99-352.48-54-517.53c77.87-120.13,217.45-188.22,350.09-184.82c28.57,0.73,138.06,5.26,234.28,84.6
			c14.13,11.65,45.31,39.35,73.4,83.28C1751.4,396.16,1757.07,539.89,1707.86,655.77z"/>
		<g>
			<linearGradient id="SVGID_21_" gradientUnits="userSpaceOnUse" x1="1318.4622" y1="508.9737" x2="1179.3413" y2="191.2793">
				<stop  offset="0" style="stop-color:#A737D5"/>
				<stop  offset="1" style="stop-color:#EF497A"/>
			</linearGradient>
			<path class="st12" d="M1672.77,555.54c-7.65,174.2-166.28,308.73-354.31,300.47S984.19,699.85,991.84,525.65
				c7.65-174.2,166.28-308.73,354.31-300.47C1534.19,233.42,1680.42,381.34,1672.77,555.54z"/>
			<linearGradient id="SVGID_22_" gradientUnits="userSpaceOnUse" x1="1046.4456" y1="517.8124" x2="1581.2812" y2="517.8124">
				<stop  offset="0" style="stop-color:#B37CFF"/>
				<stop  offset="1" style="stop-color:#F895E7"/>
			</linearGradient>
			<ellipse class="st13" cx="1313.86" cy="517.81" rx="267.42" ry="252.62"/>
			<g class="st14">
				<path class="st15" d="M1419.37,542.12c-0.08,55.69-3.9,111.48-13.71,166.38c-2.48,13.71-5.36,27.36-8.8,40.88
					c-3.44,13.51-7.42,26.91-12.28,40c-4.91,13.06-10.6,25.94-18.32,37.7c-3.89,5.84-8.31,11.44-13.75,16.04
					c-2.72,2.29-5.71,4.32-9,5.8c-3.28,1.48-6.87,2.41-10.51,2.48c-3.64,0.11-7.28-0.61-10.62-1.95c-3.36-1.33-6.42-3.27-9.21-5.48
					c-5.58-4.46-10.09-9.99-14.05-15.79c-7.86-11.68-13.63-24.53-18.59-37.57c-4.93-13.07-8.94-26.46-12.41-39.96
					c-3.47-13.51-6.38-27.15-8.88-40.86c-5-27.42-8.41-55.11-10.71-82.87c-2.28-27.77-3.43-55.62-3.57-83.48
					c-0.07-13.93,0.31-27.85,0.81-41.77c0.52-13.92,1.29-27.83,2.31-41.71c2.06-27.77,5.14-55.49,9.71-82.97
					c2.3-13.74,4.97-27.42,8.19-40.98c3.23-13.56,6.98-27,11.63-40.16c2.34-6.57,4.89-13.07,7.81-19.42
					c2.91-6.35,6.17-12.56,10-18.43c3.84-5.84,8.25-11.42,13.74-15.89c2.75-2.21,5.77-4.14,9.09-5.44c3.3-1.32,6.88-1.99,10.45-1.86
					c3.57,0.1,7.08,0.99,10.32,2.42c3.25,1.44,6.23,3.39,8.97,5.6c5.48,4.45,10.02,9.9,14.04,15.62c8,11.51,14.03,24.21,19.25,37.13
					c5.19,12.96,9.47,26.25,13.2,39.68c3.72,13.43,6.86,27.02,9.59,40.68C1414.83,430.62,1419.21,486.42,1419.37,542.12z
					 M1415.25,542.12c0.05-27.75-1-55.5-3.31-83.15c-2.27-27.65-5.72-55.22-10.85-82.48c-2.56-13.63-5.55-27.18-9.1-40.59
					c-3.56-13.4-7.68-26.66-12.68-39.57c-5.04-12.88-10.89-25.53-18.65-36.97c-3.9-5.68-8.3-11.07-13.58-15.45
					c-2.64-2.18-5.5-4.1-8.61-5.51c-3.1-1.39-6.43-2.31-9.83-2.4c-3.39-0.11-6.78,0.57-9.91,1.87c-3.15,1.28-6.04,3.16-8.67,5.33
					c-5.27,4.38-9.54,9.89-13.25,15.68c-3.7,5.82-6.86,11.99-9.67,18.3c-2.82,6.32-5.28,12.79-7.53,19.34
					c-4.48,13.11-8.06,26.52-11.12,40.04c-3.06,13.53-5.57,27.18-7.71,40.88c-4.26,27.42-7.02,55.06-8.77,82.76
					c-1.77,27.7-2.38,55.46-2.33,83.21c-0.07,27.75,0.85,55.5,2.92,83.17c2.08,27.67,5.26,55.26,10.03,82.59
					c2.39,13.66,5.18,27.25,8.52,40.7c3.35,13.44,7.23,26.76,12.01,39.75c4.81,12.95,10.43,25.69,18.02,37.17
					c3.82,5.69,8.17,11.09,13.44,15.36c2.63,2.12,5.5,3.96,8.6,5.22c3.09,1.26,6.4,1.96,9.72,1.85c3.32-0.09,6.59-0.96,9.63-2.36
					c3.04-1.4,5.85-3.33,8.42-5.53c5.16-4.43,9.41-9.89,13.17-15.63c7.46-11.57,13-24.34,17.75-37.31
					c4.72-13.01,8.56-26.34,11.87-39.79c3.3-13.46,6.06-27.05,8.42-40.72c4.73-27.33,7.88-54.93,9.97-82.59
					C1414.28,597.62,1415.26,569.87,1415.25,542.12z"/>
				<path class="st15" d="M1559.85,542.12c-0.19,35.86-4.8,71.74-14.4,106.32c-9.77,34.5-24.49,67.69-44.48,97.49
					c-10,14.88-21.32,28.89-33.97,41.6c-12.65,12.71-26.64,24.11-41.82,33.67c-15.2,9.52-31.61,17.14-48.8,22.31
					c-17.17,5.18-35.1,7.89-53.04,7.9c-17.94,0-35.88-2.69-53.06-7.86c-17.19-5.16-33.62-12.76-48.83-22.27
					c-15.2-9.55-29.21-20.94-41.88-33.64c-12.67-12.71-24.02-26.71-34.04-41.6c-20.03-29.8-34.78-63.01-44.6-97.53
					c-4.83-17.29-8.42-34.92-10.8-52.71c-2.37-17.79-3.55-35.74-3.64-53.68c0.09-17.95,1.29-35.89,3.67-53.68
					c2.39-17.79,5.99-35.41,10.83-52.7c9.84-34.5,24.61-67.69,44.66-97.46c10.02-14.87,21.37-28.86,34.04-41.55
					c12.67-12.68,26.67-24.07,41.86-33.58c15.21-9.49,31.63-17.04,48.8-22.19c17.15-5.18,35.06-7.87,52.97-7.89
					c17.92,0.03,35.82,2.75,52.96,7.94c17.15,5.17,33.56,12.74,48.76,22.23c15.18,9.53,29.16,20.92,41.81,33.61
					c12.65,12.69,23.98,26.69,33.98,41.56c20,29.77,34.75,62.94,44.54,97.43C1555,470.39,1559.63,506.26,1559.85,542.12z
					 M1555.12,542.12c-0.05-35.45-4.47-70.94-13.82-105.17c-9.41-34.17-23.57-67.16-43.07-96.83
					c-9.74-14.82-20.81-28.79-33.21-41.48c-12.4-12.68-26.1-24.15-41.07-33.68c-15-9.48-31.19-17.11-48.17-22.27
					c-16.97-5.16-34.69-7.88-52.45-7.94c-17.75,0.07-35.47,2.8-52.43,7.98c-16.97,5.17-33.15,12.82-48.14,22.31
					c-14.96,9.54-28.64,21.02-41.02,33.7c-12.37,12.7-23.42,26.67-33.14,41.49c-19.46,29.66-33.59,62.64-42.95,96.79
					c-4.66,17.1-8.04,34.53-10.33,52.09c-2.29,17.56-3.42,35.28-3.46,52.99c0.05,17.72,1.19,35.43,3.5,52.99
					c2.3,17.56,5.69,34.99,10.36,52.08c9.38,34.14,23.54,67.09,43.01,96.72c9.72,14.8,20.77,28.76,33.14,41.44
					c12.38,12.66,26.04,24.13,41,33.64c14.98,9.46,31.15,17.05,48.1,22.23c16.93,5.18,34.62,7.93,52.35,8.02
					c17.73-0.07,35.42-2.8,52.37-7.97c16.95-5.16,33.14-12.73,48.13-22.19c14.98-9.5,28.66-20.96,41.06-33.62
					c12.39-12.68,23.46-26.63,33.21-41.44c19.51-29.64,33.7-62.6,43.13-96.76C1550.6,613.05,1555.05,577.57,1555.12,542.12z"/>
				<path class="st15" d="M1047.34,419.73l71.03-0.57l71.03-0.33l142.06-0.26l142.06,0.29l71.03,0.36l71.03,0.62
					c0.12,0,0.21,0.1,0.21,0.21c0,0.11-0.09,0.21-0.21,0.21l-71.03,0.62l-71.03,0.36l-142.06,0.29l-142.06-0.26l-71.03-0.33
					l-71.03-0.57c-0.17,0-0.31-0.14-0.31-0.31C1047.03,419.87,1047.17,419.73,1047.34,419.73z"/>
				<path class="st15" d="M1129.74,300.76c16.81-0.27,33.62-0.38,50.43-0.57l50.43-0.33c16.81-0.14,33.62-0.12,50.43-0.17l50.43-0.1
					l100.86,0.29l50.43,0.36c16.81,0.21,33.62,0.33,50.43,0.62c0.12,0,0.21,0.1,0.2,0.21c0,0.11-0.09,0.2-0.2,0.2
					c-16.81,0.29-33.62,0.41-50.43,0.62l-50.43,0.36l-100.86,0.29l-50.43-0.1c-16.81-0.04-33.62-0.03-50.43-0.17l-50.43-0.33
					c-16.81-0.19-33.62-0.31-50.43-0.57c-0.17,0-0.31-0.14-0.31-0.32C1129.43,300.9,1129.57,300.76,1129.74,300.76z"/>
				<path class="st15" d="M1022.65,538.69l77.2-0.57l77.2-0.33l154.4-0.26l154.4,0.29l77.2,0.36l77.2,0.62
					c0.12,0,0.21,0.1,0.21,0.21c0,0.11-0.09,0.21-0.21,0.21l-77.2,0.62l-77.2,0.36l-154.4,0.29l-154.4-0.26l-77.2-0.33l-77.2-0.57
					c-0.17,0-0.31-0.14-0.31-0.31C1022.35,538.83,1022.48,538.7,1022.65,538.69z"/>
				<path class="st15" d="M1047.34,657.66l71.03-0.57l71.03-0.33l142.06-0.26l142.06,0.29l71.03,0.35l71.03,0.62
					c0.12,0,0.21,0.1,0.21,0.21c0,0.11-0.09,0.21-0.21,0.21l-71.03,0.62l-71.03,0.36l-142.06,0.29l-142.06-0.26l-71.03-0.33
					l-71.03-0.57c-0.17,0-0.31-0.14-0.31-0.31C1047.03,657.8,1047.17,657.66,1047.34,657.66z"/>
				<path class="st15" d="M1543.33,778.03H1139.9c-0.6,0-1.09-0.49-1.09-1.09c0-0.6,0.49-1.09,1.09-1.09h403.43
					c0.6,0,1.09,0.49,1.09,1.09C1544.42,777.54,1543.93,778.03,1543.33,778.03z"/>
			</g>
		</g>
		<g>
			<linearGradient id="SVGID_23_" gradientUnits="userSpaceOnUse" x1="1516.7899" y1="117.5251" x2="1292.3966" y2="560.2133">
				<stop  offset="0" style="stop-color:#FDF53F"/>
				<stop  offset="0.6645" style="stop-color:#E57A58"/>
				<stop  offset="1" style="stop-color:#D93C65"/>
			</linearGradient>
			<path class="st16" d="M1492.28,285.79h-73.74c-5.64,0-10.21-4.57-10.21-10.21v-73.94c0-5.32,4.08-9.75,9.39-10.18l78.57-6.36
				c6.19-0.5,11.39,4.59,11.02,10.79l-4.83,80.3C1502.15,281.58,1497.69,285.79,1492.28,285.79z"/>
			<path class="st15" d="M1429.06,271.4c-1.98,0-3.91-0.76-5.36-2.12c-1.56-1.47-2.46-3.54-2.46-5.68v-47.4
				c0-1.34,1.08-2.42,2.42-2.42s2.42,1.08,2.42,2.42v47.4c0,0.83,0.33,1.59,0.93,2.16c0.6,0.57,1.39,0.85,2.21,0.8l56.18-3.34
				c1.56-0.09,2.79-1.4,2.79-2.96V213.7c0-0.85-0.35-1.63-0.98-2.2c-0.63-0.57-1.44-0.84-2.29-0.75l-46.73,4.63
				c-1.54,0.15-2.2,1.27-2.42,1.74c-0.21,0.47-0.61,1.7,0.3,2.96l17.82,24.6c0.56,0.77,1.43,1.22,2.38,1.23c0.01,0,0.02,0,0.03,0
				c0.94,0,1.81-0.43,2.37-1.19l19.63-26.16c0.8-1.07,2.32-1.29,3.39-0.48c1.07,0.8,1.29,2.32,0.48,3.39l-19.63,26.16
				c-1.51,2-3.76,3.18-6.31,3.12c-2.51-0.02-4.79-1.2-6.26-3.23l-17.82-24.6c-1.66-2.29-1.96-5.2-0.8-7.79
				c1.16-2.58,3.54-4.29,6.35-4.57l46.73-4.63c2.19-0.21,4.38,0.51,6.01,1.98c1.63,1.48,2.57,3.59,2.57,5.79v46.54
				c0,4.13-3.23,7.55-7.35,7.8l-56.17,3.34C1429.36,271.39,1429.21,271.4,1429.06,271.4z"/>
		</g>
		<g>
			<linearGradient id="SVGID_24_" gradientUnits="userSpaceOnUse" x1="1391.4688" y1="221.8185" x2="1195.9814" y2="510.2105">
				<stop  offset="0" style="stop-color:#FDF53F"/>
				<stop  offset="0.6645" style="stop-color:#E57A58"/>
				<stop  offset="1" style="stop-color:#D93C65"/>
			</linearGradient>
			<path class="st17" d="M1386.48,277.15v63.9c0,7.59-5.97,13.84-13.55,14.2l-79.91,3.75c-8.1,0.38-14.88-6.09-14.88-14.2v-67.65
				c0-7.85,6.36-14.22,14.22-14.22h79.91C1380.11,262.93,1386.48,269.29,1386.48,277.15z"/>
			<path class="st18" d="M1291.67,311.33c-2.7-15.83,3.03-24.63,8.3-29.22c9.93-8.64,27.65-10.64,45.14-5.1
				c17.14,5.44,29.22,21.19,26.93,35.11c-0.91,5.52-5.6,17.59-29.09,19.5c4.93,2.37,11.61,5.29,17.75,7.01l0,0
				c1.15,0.32,1.87,1.41,1.72,2.6c-0.15,1.17-1.12,2.04-2.3,2.07c-0.69,0.01-1.56,0.03-2.6,0.03
				C1342.92,343.33,1296.72,340.95,1291.67,311.33z M1359.55,342.74L1359.55,342.74L1359.55,342.74z M1360.03,339.04
				C1360.03,339.04,1360.04,339.04,1360.03,339.04C1360.04,339.04,1360.03,339.04,1360.03,339.04z M1334.61,327.61
				c19.37,0.41,31.48-5.54,33.23-16.17c1.92-11.71-9.07-25.61-24.02-30.36c-13.19-4.19-31-4.5-41.05,4.25
				c-6.48,5.64-8.8,14.15-6.9,25.29c3.74,21.95,34.43,27.08,52.57,28.17c-7.97-3.33-14.52-6.97-14.91-7.18l-7.44-4.15
				L1334.61,327.61z"/>
		</g>
		<g>
			<linearGradient id="SVGID_25_" gradientUnits="userSpaceOnUse" x1="1314.9905" y1="343.3985" x2="912.452" y2="609.2261">
				<stop  offset="0" style="stop-color:#FDF53F"/>
				<stop  offset="1" style="stop-color:#D93C65"/>
			</linearGradient>
			<path class="st19" d="M967.61,391.26l349.42-1.53c3.34-0.03,6.06,2.68,6.04,6.02l-0.75,122.31c-0.02,3.36-2.8,6.05-6.16,5.95
				c-30.81-0.92-346.61-4.97-352.65-4.72c-5.97,0.25-2.73-96.34-1.83-122.25C961.79,393.83,964.41,391.29,967.61,391.26z"/>
			<path class="st15" d="M1316.35,519.28l-0.04,0c-19.69-0.59-208.4-2.94-299.09-4.07c-26.52-0.33-45.34-0.57-50.36-0.64l-0.47-0.01
				l-0.08-0.46c-2.14-12.09-2.11-52.51,0.11-116.9c0.02-0.67,0.57-1.2,1.24-1.21l349.42-1.53c0.34,0,0.66,0.13,0.9,0.37
				c0.24,0.24,0.37,0.55,0.36,0.89l-0.75,122.31C1317.59,518.72,1317.03,519.28,1316.35,519.28z M967.34,513.44
				c5.65,0.08,24.14,0.31,49.89,0.63c90.69,1.13,279.41,3.49,299.11,4.07l0.03,0c0.03,0,0.09-0.06,0.09-0.12l0.75-122.31l-0.13-0.69
				l0,0.57l-349.42,1.53c-0.06,0-0.12,0.05-0.12,0.12C965.36,460.75,965.29,500.88,967.34,513.44z"/>
			<path class="st20" d="M982.56,422.85L982.56,422.85c0,3.31,1.1,5.99,2.46,5.99h133.84c1.36,0,2.46-2.68,2.46-5.99l0,0
				c0-3.31-1.1-5.99-2.46-5.99H985.03C983.67,416.86,982.56,419.54,982.56,422.85z"/>
			<path class="st20" d="M982.56,443.26L982.56,443.26c0,3.31,1.1,5.99,2.46,5.99h133.84c1.36,0,2.46-2.68,2.46-5.99l0,0
				c0-3.31-1.1-5.99-2.46-5.99H985.03C983.67,437.27,982.56,439.95,982.56,443.26z"/>
			<path class="st20" d="M982.56,463.68L982.56,463.68c0,3.31,1.1,5.99,2.46,5.99h133.84c1.36,0,2.46-2.68,2.46-5.99l0,0
				c0-3.31-1.1-5.99-2.46-5.99H985.03C983.67,457.69,982.56,460.37,982.56,463.68z"/>
			<path class="st20" d="M982.56,484.09L982.56,484.09c0,3.31,1.1,5.99,2.46,5.99h133.84c1.36,0,2.46-2.68,2.46-5.99l0,0
				c0-3.31-1.1-5.99-2.46-5.99H985.03C983.67,478.1,982.56,480.78,982.56,484.09z"/>
			<g>
				<circle class="st15" cx="1155.25" cy="427.06" r="23.28"/>
				<circle class="st15" cx="1213.11" cy="427.06" r="23.28"/>
				<circle class="st15" cx="1270.97" cy="427.83" r="23.28"/>
				<g>
					<linearGradient id="SVGID_26_" gradientUnits="userSpaceOnUse" x1="1186.9521" y1="397.7357" x2="1105.7789" y2="474.7712">
						<stop  offset="0" style="stop-color:#A737D5"/>
						<stop  offset="1" style="stop-color:#EF497A"/>
					</linearGradient>
					<path class="st21" d="M1169.08,422.14c0.72,1.75,1.12,3.67,1.12,5.68c0,8.26-6.7,14.95-14.95,14.95
						c-8.26,0-14.95-6.7-14.95-14.95s6.7-14.95,14.95-14.95c0.25,0,0.5,0.01,0.75,0.02v-3.79c-0.25-0.01-0.5-0.02-0.75-0.02
						c-10.35,0-18.74,8.39-18.74,18.74c0,10.35,8.39,18.74,18.74,18.74c10.35,0,18.74-8.39,18.74-18.74c0-2.55-0.51-4.98-1.43-7.19
						L1169.08,422.14z"/>
					<linearGradient id="SVGID_27_" gradientUnits="userSpaceOnUse" x1="1239.3384" y1="402.4201" x2="1167.2804" y2="470.8051">
						<stop  offset="0" style="stop-color:#A737D5"/>
						<stop  offset="1" style="stop-color:#EF497A"/>
					</linearGradient>
					<path class="st22" d="M1220.82,440.48c-2.31,1.46-5.04,2.3-7.97,2.3c-8.26,0-14.95-6.7-14.95-14.95s6.7-14.95,14.95-14.95
						c0.25,0,0.5,0.01,0.75,0.02v-3.79c-0.25-0.01-0.5-0.02-0.75-0.02c-10.35,0-18.74,8.39-18.74,18.74
						c0,10.35,8.39,18.74,18.74,18.74c3.61,0,6.99-1.02,9.85-2.79L1220.82,440.48z"/>
					<linearGradient id="SVGID_28_" gradientUnits="userSpaceOnUse" x1="1297.7035" y1="402.563" x2="1225.6454" y2="470.9482">
						<stop  offset="0" style="stop-color:#A737D5"/>
						<stop  offset="1" style="stop-color:#EF497A"/>
					</linearGradient>
					<path class="st23" d="M1283.45,436.23c-2.69,3.95-7.23,6.55-12.37,6.55c-8.26,0-14.95-6.7-14.95-14.95s6.7-14.95,14.95-14.95
						c0.25,0,0.5,0.01,0.75,0.02v-3.79c-0.25-0.01-0.5-0.02-0.75-0.02c-10.35,0-18.74,8.39-18.74,18.74
						c0,10.35,8.39,18.74,18.74,18.74c6.4,0,12.06-3.21,15.44-8.11L1283.45,436.23z"/>
				</g>
				<g class="st24">
					<path class="st15" d="M1174.22,460.21h-37.94c-2.38,0-4.31,1.93-4.31,4.31c0,2.38,1.93,4.31,4.31,4.31h37.94
						c2.38,0,4.31-1.93,4.31-4.31C1178.53,462.14,1176.6,460.21,1174.22,460.21z"/>
					<path class="st15" d="M1232.08,460.21h-37.94c-2.38,0-4.31,1.93-4.31,4.31c0,2.38,1.93,4.31,4.31,4.31h37.94
						c2.38,0,4.31-1.93,4.31-4.31C1236.39,462.14,1234.46,460.21,1232.08,460.21z"/>
					<path class="st15" d="M1252,468.83h37.94c2.38,0,4.31-1.93,4.31-4.31c0-2.38-1.93-4.31-4.31-4.31H1252
						c-2.38,0-4.31,1.93-4.31,4.31C1247.69,466.9,1249.62,468.83,1252,468.83z"/>
					<path class="st15" d="M1174.22,473.62h-37.94c-2.38,0-4.31,1.93-4.31,4.31v25.39c0,2.38,1.93,4.31,4.31,4.31h37.94
						c2.38,0,4.31-1.93,4.31-4.31v-25.39C1178.53,475.55,1176.6,473.62,1174.22,473.62z"/>
					<path class="st15" d="M1232.08,473.62h-37.94c-2.38,0-4.31,1.93-4.31,4.31v25.39c0,2.38,1.93,4.31,4.31,4.31h37.94
						c2.38,0,4.31-1.93,4.31-4.31v-25.39C1236.39,475.55,1234.46,473.62,1232.08,473.62z"/>
					<path class="st15" d="M1289.94,473.62H1252c-2.38,0-4.31,1.93-4.31,4.31v25.39c0,2.38,1.93,4.31,4.31,4.31h37.94
						c2.38,0,4.31-1.93,4.31-4.31v-25.39C1294.25,475.55,1292.32,473.62,1289.94,473.62z"/>
				</g>
			</g>
		</g>
		<g>
			<g>
				
					<linearGradient id="SVGID_29_" gradientUnits="userSpaceOnUse" x1="-1939.0802" y1="548.7759" x2="-2094.2314" y2="795.4269" gradientTransform="matrix(-1 0 0 1 -539.0465 0)">
					<stop  offset="0" style="stop-color:#CB236D"/>
					<stop  offset="1" style="stop-color:#4C246D"/>
				</linearGradient>
				<path class="st25" d="M1695.52,450.46c0,0,58.58,32.45,63.42,87.36c4.85,54.92,0.4,282.85-117.05,338.96
					c-117.46,56.1-272.93,43.17-332.44,37.04c-59.51-6.13-92.51-46.58-99.88-74.43c-7.37-27.85-19.28-131.58,43.33-165.05
					c62.61-33.46,128.36-84.73,194.06-134.64C1512.66,489.78,1625.26,408.3,1695.52,450.46z"/>
				
					<linearGradient id="SVGID_30_" gradientUnits="userSpaceOnUse" x1="-1794.4227" y1="724.1929" x2="-1737.111" y2="784.052" gradientTransform="matrix(-1 0 0 1 -539.0465 0)">
					<stop  offset="0" style="stop-color:#2B3582"/>
					<stop  offset="1" style="stop-color:#150E42"/>
				</linearGradient>
				<path class="st26" d="M1271.35,693.28c0,0,15.81,0.84,17.75,33.36c0,0-36.66,32.86-86.18,40.68c-3.72,0.59,5.2-25.38,6.54-28.89
					C1215.84,721.69,1235.92,710.92,1271.35,693.28z"/>
				
					<linearGradient id="SVGID_31_" gradientUnits="userSpaceOnUse" x1="-1882.8811" y1="664.8163" x2="-1823.2075" y2="440.0458" gradientTransform="matrix(-1 0 0 1 -539.0465 0)">
					<stop  offset="0" style="stop-color:#53D8FF"/>
					<stop  offset="1" style="stop-color:#3840F7"/>
				</linearGradient>
				<path class="st27" d="M1449.4,655.03h-33.36c0,0-102.39-113.09-169.55-124.49c0,0-46.75,59.67,2.49,171.17
					c3.96,8.97,15.04,12.95,23.3,7.68c2.47-1.58,4.25-3.69,5.32-6.35l-3.96-95.2c0,0,87.34,76.39,102.52,91.13
					C1391.34,713.72,1468.51,704.73,1449.4,655.03z"/>
				
					<linearGradient id="SVGID_32_" gradientUnits="userSpaceOnUse" x1="-1718.3954" y1="874.4393" x2="-1609.988" y2="954.0042" gradientTransform="matrix(-1 0 0 1 -539.0465 0)">
					<stop  offset="0" style="stop-color:#2B3582"/>
					<stop  offset="1" style="stop-color:#150E42"/>
				</linearGradient>
				<path class="st28" d="M1126.86,892.46c13.98-12.25,36.26-26,68.41-29.94l10.88,6.65c0,0-6.93,10.23-19.6,21.03
					c-11.64,6.76-29.62,15.92-44.53,17.91C1127.53,910.05,1125.39,901.29,1126.86,892.46z"/>
				
					<linearGradient id="SVGID_33_" gradientUnits="userSpaceOnUse" x1="-1666.5941" y1="832.1229" x2="-1894.6804" y2="645.8084" gradientTransform="matrix(-1 0 0 1 -539.0465 0)">
					<stop  offset="0" style="stop-color:#FDF53F"/>
					<stop  offset="0.6645" style="stop-color:#E57A58"/>
					<stop  offset="1" style="stop-color:#D93C65"/>
				</linearGradient>
				<path class="st29" d="M1209.46,738.43c8.61,2.79,12.4,14.99,34.26,6.92c21.14-7.81,36.86-17.87,44.95-23.68
					c0.18,1.57,0.33,3.22,0.44,4.97c0,0-38.65,36.77-88.17,44.59c-3.72,0.59-6.66-3.12-5.32-6.64
					C1198.01,758.28,1202.34,748.7,1209.46,738.43z"/>
				
					<linearGradient id="SVGID_34_" gradientUnits="userSpaceOnUse" x1="-1604.7231" y1="965.7122" x2="-1832.8091" y2="779.398" gradientTransform="matrix(-1 0 0 1 -539.0465 0)">
					<stop  offset="0" style="stop-color:#FDF53F"/>
					<stop  offset="0.6645" style="stop-color:#E57A58"/>
					<stop  offset="1" style="stop-color:#D93C65"/>
				</linearGradient>
				<path class="st30" d="M1116.33,902.92c2.76-3.13,6.27-6.73,10.53-10.46c-1.47,8.83,0.66,17.59,15.16,15.66
					c14.91-1.99,32.88-11.14,44.53-17.91c-14.59,12.45-36.8,25.66-64.82,24.88C1115.5,914.92,1112.22,907.6,1116.33,902.92z"/>
				
					<linearGradient id="SVGID_35_" gradientUnits="userSpaceOnUse" x1="-1716.8381" y1="723.528" x2="-1943.5983" y2="809.0602" gradientTransform="matrix(-1 0 0 1 -539.0465 0)">
					<stop  offset="0" style="stop-color:#53D8FF"/>
					<stop  offset="1" style="stop-color:#3840F7"/>
				</linearGradient>
				<path class="st31" d="M1448.17,679.17l-156.23,1.69c0,0-89.22,73.81-105.4,186.37c0,0-2.69,8.28,13.44,9.69
					c0,0,53.94-35.23,89.11-97.52c43.13-76.37,128.56-41.99,128.56-41.99c28.07-20.24,67.74-24.36,97.62-31.1L1448.17,679.17z"/>
				
					<linearGradient id="SVGID_36_" gradientUnits="userSpaceOnUse" x1="-1893.5396" y1="580.3835" x2="-1967.1372" y2="667.905" gradientTransform="matrix(-1 0 0 1 -539.0465 0)">
					<stop  offset="0" style="stop-color:#F9B776"/>
					<stop  offset="1" style="stop-color:#F47960"/>
				</linearGradient>
				<path class="st32" d="M1444.49,553.32c0,0-16.82,84.29-99.22,117.63l-29.31-3.45l-6.92,11.03l68.76,2.19
					c0,0,58.77-23.28,89.91-86.71C1468.73,591.91,1485.88,556.51,1444.49,553.32z"/>
				
					<linearGradient id="SVGID_37_" gradientUnits="userSpaceOnUse" x1="-2100.5154" y1="418.205" x2="-1982.5974" y2="831.902" gradientTransform="matrix(-1 0 0 1 -539.0465 0)">
					<stop  offset="0" style="stop-color:#FDF53F"/>
					<stop  offset="0.6645" style="stop-color:#E57A58"/>
					<stop  offset="1" style="stop-color:#D93C65"/>
				</linearGradient>
				<path class="st33" d="M1435.47,677.8c0,0,19.12-51.99,23.24-102.5c0,0-13.99-12.02-22.74-17.21c-2.83-1.68-3.9-5.23-2.47-8.2
					c6.43-13.32,45.31-65.62,48.23-66.35c15.83-3.95,80.76-34.82,126.49,27.73c19.62,26.84-3.89,109.48-92.93,195.06l-18.37,3.51
					L1435.47,677.8z"/>
				
					<linearGradient id="SVGID_38_" gradientUnits="userSpaceOnUse" x1="-1979.3574" y1="660.0178" x2="-1832.2476" y2="458.7636" gradientTransform="matrix(-1 0 0 1 -539.0465 0)">
					<stop  offset="0" style="stop-color:#F9B776"/>
					<stop  offset="1" style="stop-color:#F47960"/>
				</linearGradient>
				<path class="st34" d="M1509.17,586.69c0,0-53.14,62.92-121.07,72.11c0,0-17.56-16.01-30.61-10.29
					c-13.06,5.71-30.96,30.94-30.96,30.94h87.23c0,0,82.48-2.91,123.69-52.92C1534.13,609.02,1524.2,598.57,1509.17,586.69z"/>
				
					<linearGradient id="SVGID_39_" gradientUnits="userSpaceOnUse" x1="-2069.3486" y1="493.2386" x2="-2063.9299" y2="444.4702" gradientTransform="matrix(-1 0 0 1 -539.0465 0)">
					<stop  offset="0" style="stop-color:#F9B776"/>
					<stop  offset="1" style="stop-color:#F47960"/>
				</linearGradient>
				<path class="st35" d="M1540.17,439.41l11.63,38.78c0.53,1.78-0.13,3.7-1.66,4.75c-5.6,3.83-20.23,11.46-40.3,4.05
					c-2.3-0.85-3.87-2.99-4.07-5.43l-2.76-33.78L1540.17,439.41z"/>
				<g>
					
						<linearGradient id="SVGID_40_" gradientUnits="userSpaceOnUse" x1="-2040.447" y1="450.6981" x2="-2064.3308" y2="371.9235" gradientTransform="matrix(-1 0 0 1 -539.0465 0)">
						<stop  offset="0" style="stop-color:#F9B776"/>
						<stop  offset="1" style="stop-color:#F47960"/>
					</linearGradient>
					<path class="st36" d="M1472.09,408c0,0,5.72,40.2,21.16,52.56c15.44,12.36,45.52,3.05,55.69-27.25l-20.25-51.81L1472.09,408z"
						/>
					
						<linearGradient id="SVGID_41_" gradientUnits="userSpaceOnUse" x1="-2061.9517" y1="306.3293" x2="-2039.7957" y2="432.7" gradientTransform="matrix(-1 0 0 1 -539.0465 0)">
						<stop  offset="0" style="stop-color:#2B3582"/>
						<stop  offset="1" style="stop-color:#150E42"/>
					</linearGradient>
					<path class="st37" d="M1530.96,415.03c-1.17,0.38-2.4-0.37-2.59-1.59c-0.56-3.71-1.95-11.05-4.77-16.06
						c0,0,1.47-5.27-13.33,2.69c-14.8,7.97-37.03,19.67-50.12,12.7c-12.76-6.79-25.69-40.99,8.04-34.65
						c1.28,0.24,2.46-0.78,2.37-2.08c-0.41-5.62,0.14-18.55,13.24-22.7c12.25-3.88,5.67,2.41,8.44,5.75
						c0.81,0.98-1.03-3.34,16.38-0.81c5.97,0.87,13.64-14.99,28.31-8.52c12.09,5.33,13.97,12.77,13.77,17.41
						c-0.06,1.5,1.46,2.52,2.83,1.89c3.7-1.7,9.66-2.59,15.36,4.56c7.88,9.88-3.38,18.45-6.76,20.69c-0.55,0.37-0.9,0.98-0.9,1.64
						c-0.03,5.14-0.83,27.55-12.06,40.19c-0.97,1.09-2.77,0.77-3.34-0.58l-8.65-20.61c-0.4-0.96-1.47-1.45-2.46-1.13L1530.96,415.03
						z"/>
					
						<linearGradient id="SVGID_42_" gradientUnits="userSpaceOnUse" x1="-2065.1858" y1="458.1988" x2="-2089.0696" y2="379.4239" gradientTransform="matrix(-1 0 0 1 -539.0465 0)">
						<stop  offset="0" style="stop-color:#F9B776"/>
						<stop  offset="1" style="stop-color:#F47960"/>
					</linearGradient>
					<path class="st38" d="M1530.78,419.21c0,0,5.28-21.51,13.3-14.53c8.02,6.98-2.09,22.35-11.28,25.28L1530.78,419.21z"/>
				</g>
				
					<linearGradient id="SVGID_43_" gradientUnits="userSpaceOnUse" x1="-1869.9661" y1="614.4844" x2="-1758.0227" y2="614.4844" gradientTransform="matrix(-1 0 0 1 -539.0465 0)">
					<stop  offset="0" style="stop-color:#2B3582"/>
					<stop  offset="1" style="stop-color:#150E42"/>
				</linearGradient>
				<path class="st39" d="M1330.92,684.33l-39.17-130.61c-1.6-5.33-6.33-9.11-11.88-9.49l-52.88-3.62
					c-5.37-0.37-9.37,4.88-7.59,9.97l43.78,124.73c1.41,4.02,5.02,6.86,9.26,7.29l52.07,5.78L1330.92,684.33z"/>
				
					<linearGradient id="SVGID_44_" gradientUnits="userSpaceOnUse" x1="-1776.1134" y1="567.0106" x2="-1844.2407" y2="636.1324" gradientTransform="matrix(-1 0 0 1 -539.0465 0)">
					<stop  offset="0" style="stop-color:#FDF53F"/>
					<stop  offset="1" style="stop-color:#D93C65"/>
				</linearGradient>
				<path class="st40" d="M1258.69,597.98c2.92,5.9,7.97,9.36,11.28,7.72c3.3-1.64,3.61-7.75,0.69-13.65
					c-2.92-5.9-7.97-9.36-11.28-7.72C1256.07,585.97,1255.76,592.08,1258.69,597.98z"/>
				
					<linearGradient id="SVGID_45_" gradientUnits="userSpaceOnUse" x1="-1856.3794" y1="663.4177" x2="-1945.8899" y2="687.9503" gradientTransform="matrix(-1 0 0 1 -539.0465 0)">
					<stop  offset="0" style="stop-color:#2B3582"/>
					<stop  offset="1" style="stop-color:#150E42"/>
				</linearGradient>
				<path class="st41" d="M1324.52,688.38c0.09,0,0.17,0,0.26-0.01l110.95-5.61c2.74-0.14,4.85-2.47,4.72-5.22
					c-0.14-2.74-2.48-4.9-5.22-4.72l-110.95,5.61c-2.74,0.14-4.85,2.47-4.72,5.22C1319.69,686.31,1321.89,688.38,1324.52,688.38z"/>
				<path class="st42" d="M1458.71,576.17c0.48,0,0.88-0.4,0.88-0.88c-0.08-23.18,8.87-53.95,8.96-54.26
					c0.14-0.47-0.13-0.95-0.6-1.09c-0.47-0.13-0.96,0.13-1.09,0.6c-0.09,0.31-9.11,31.32-9.03,54.76
					C1457.83,575.78,1458.22,576.17,1458.71,576.17z"/>
				<path class="st42" d="M1509.17,587.56c0.26,0,0.52-0.11,0.69-0.33c0.24-0.31,24.51-31.16,32.85-52.3
					c0.18-0.45-0.04-0.96-0.49-1.14c-0.45-0.18-0.96,0.04-1.14,0.49c-8.25,20.9-32.36,51.55-32.6,51.85
					c-0.3,0.38-0.24,0.94,0.15,1.24C1508.78,587.5,1508.97,587.56,1509.17,587.56z"/>
				<path class="st42" d="M1543.31,634.73l0.65-0.28c35.11-15.03,56.79-56.95,57.01-57.37c0.22-0.43,0.05-0.96-0.39-1.18
					c-0.42-0.22-0.95-0.05-1.18,0.38c-0.21,0.41-21.34,41.25-55.48,56.27l-3.62-5.11c-0.29-0.4-0.84-0.49-1.23-0.21
					c-0.4,0.28-0.49,0.83-0.21,1.23L1543.31,634.73z"/>
			</g>
		</g>
		<g>
			<g>
				<g>
					<linearGradient id="SVGID_46_" gradientUnits="userSpaceOnUse" x1="1709.2416" y1="809.9492" x2="1784.5211" y2="550.4751">
						<stop  offset="0" style="stop-color:#53D8FF"/>
						<stop  offset="0.4242" style="stop-color:#4898FC"/>
						<stop  offset="1" style="stop-color:#3840F7"/>
					</linearGradient>
					<path class="st43" d="M1722.81,888.28c0,0,63.9-147.63,15.52-303.15c-0.32-1.02-2.11-0.82-2.25,0.25
						C1724.42,679.44,1720.94,781.31,1722.81,888.28z"/>
					<path class="st15" d="M1723.06,885.17c-0.07,0-0.15-0.01-0.22-0.03c-0.44-0.12-0.69-0.58-0.57-1.01
						c11.29-40.12,15.59-108.41,17.21-158.64c1.75-54.45,0.82-99.98,0.81-100.43c-0.01-0.45,0.35-0.83,0.8-0.84
						c0.01,0,0.01,0,0.02,0c0.45,0,0.81,0.36,0.82,0.8c0.01,0.45,0.94,46.03-0.81,100.52c-1.62,50.32-5.93,118.76-17.27,159.03
						C1723.75,884.94,1723.42,885.17,1723.06,885.17z"/>
				</g>
				<g>
					<linearGradient id="SVGID_47_" gradientUnits="userSpaceOnUse" x1="1672.8325" y1="776.7261" x2="1719.2816" y2="514.0485">
						<stop  offset="0" style="stop-color:#53D8FF"/>
						<stop  offset="0.4242" style="stop-color:#4898FC"/>
						<stop  offset="1" style="stop-color:#3840F7"/>
					</linearGradient>
					<path class="st44" d="M1708.17,864.22c0,0,39.48-181.13-35.13-364.43c-0.49-1.2-2.26-0.85-2.21,0.44
						C1674.85,613.76,1688.4,736.11,1708.17,864.22z"/>
					<path class="st15" d="M1707.77,860.32c-0.03,0-0.05,0-0.08,0c-0.45-0.04-0.78-0.44-0.74-0.89
						c8.86-93.52-24.91-309.67-25.25-311.84c-0.07-0.45,0.24-0.87,0.68-0.94c0.45-0.08,0.87,0.24,0.94,0.68
						c0.34,2.18,34.15,218.52,25.26,312.25C1708.55,860,1708.19,860.32,1707.77,860.32z"/>
				</g>
				<g>
					<linearGradient id="SVGID_48_" gradientUnits="userSpaceOnUse" x1="1698.4253" y1="849.4965" x2="1611.6248" y2="541.7495">
						<stop  offset="0" style="stop-color:#53D8FF"/>
						<stop  offset="0.4242" style="stop-color:#4898FC"/>
						<stop  offset="1" style="stop-color:#3840F7"/>
					</linearGradient>
					<path class="st45" d="M1701.91,913.34c0,0,18.91-158.01-75.04-300.21c-0.61-0.93-2.32-0.36-2.14,0.71
						C1641.28,708.42,1668.2,808.94,1701.91,913.34z"/>
					<path class="st15" d="M1700.99,910.25c-0.45,0-0.81-0.36-0.82-0.8c-0.84-41.66-16.95-109.46-30.32-159
						c-14.5-53.71-28.98-98.12-29.13-98.56c-0.14-0.43,0.09-0.89,0.52-1.04c0.43-0.14,0.89,0.1,1.03,0.53
						c0.15,0.44,14.64,44.89,29.15,98.64c13.4,49.63,29.54,117.58,30.38,159.41c0.01,0.45-0.35,0.83-0.8,0.84
						C1701,910.25,1700.99,910.25,1700.99,910.25z"/>
				</g>
			</g>
			<g>
				<linearGradient id="SVGID_49_" gradientUnits="userSpaceOnUse" x1="1785.0095" y1="750.0728" x2="1669.6874" y2="902.2339">
					<stop  offset="0" style="stop-color:#A737D5"/>
					<stop  offset="1" style="stop-color:#EF497A"/>
				</linearGradient>
				<path class="st46" d="M1663.03,826.27h86.85c5.69,0,9.9,5.3,8.62,10.84c-5.56,24.08-12.22,48.5-25.84,73.3
					c-2.52,4.58-7.31,7.45-12.54,7.45h-28.34c-5.15,0-9.87-2.83-12.31-7.36c-10.92-20.29-21.42-44.47-26.61-71.92
					C1651.66,832.19,1656.53,826.27,1663.03,826.27z"/>
			</g>
		</g>
	</g>
</g>
</svg>
