<svg xmlns="http://www.w3.org/2000/svg" xmlns:xlink="http://www.w3.org/1999/xlink" viewBox="0 0 1920.04 1374.14"><defs><style>.cls-1{fill:none;clip-rule:evenodd;}.cls-2{fill:url(#linear-gradient);}.cls-3{opacity:0.2;}.cls-4{fill:#fff;}.cls-5{clip-path:url(#clip-path);}.cls-6{fill:url(#linear-gradient-2);}.cls-7{clip-path:url(#clip-path-2);}.cls-8{fill:url(#linear-gradient-3);}.cls-9{clip-path:url(#clip-path-3);}.cls-10{fill:url(#linear-gradient-4);}.cls-11{clip-path:url(#clip-path-4);}.cls-12{fill:url(#linear-gradient-5);}.cls-13{clip-path:url(#clip-path-5);}.cls-14{fill:url(#linear-gradient-6);}.cls-15{clip-path:url(#clip-path-6);}.cls-16{fill:url(#linear-gradient-7);}</style><linearGradient id="linear-gradient" x1="462.49" y1="779.81" x2="1822.83" y2="124.15" gradientUnits="userSpaceOnUse"><stop offset="0" stop-color="#1a1a1a"/><stop offset="1" stop-color="#666"/></linearGradient><clipPath id="clip-path" transform="translate(0.04)"><path class="cls-1" d="M1608.31,872.5C1088,1374.14,732,691.75,143.7,880.88A790.25,790.25,0,0,0,0,943.39V1080H1920V703.61C1802.17,728.75,1693.41,787,1608.31,872.5"/></clipPath><linearGradient id="linear-gradient-2" x1="1813.02" y1="776.27" x2="554.11" y2="1155.08" gradientUnits="userSpaceOnUse"><stop offset="0" stop-color="#b4b5b5"/><stop offset="1" stop-color="#fff"/></linearGradient><clipPath id="clip-path-2" transform="translate(0.04)"><path class="cls-1" d="M143.7,880.88C732,691.75,1088,1374.14,1608.31,872.5,1693.41,787,1802.17,728.75,1920,703.61V530.19c-172.41-3.58-338.58,62.66-458.08,182.78C942.37,1213.85,586.63,534.27,0,720.51V943.39A790.25,790.25,0,0,1,143.7,880.88"/></clipPath><linearGradient id="linear-gradient-3" x1="99.71" y1="845.45" x2="1356.89" y2="998.77" gradientUnits="userSpaceOnUse"><stop offset="0" stop-color="#c8c8c9"/><stop offset="1" stop-color="#fff"/></linearGradient><clipPath id="clip-path-3" transform="translate(0.04)"><path class="cls-1" d="M0,720.51c586.67-186.24,942.41,493.34,1462-7.54,119.5-120.12,285.67-186.36,458.08-182.78v-287c-170.86-2.39-335.26,63.75-453.75,182.86C945.92,927.72,589.88,245.33,1.63,434.47L0,435Z"/></clipPath><linearGradient id="linear-gradient-4" x1="1705.62" y1="351.24" x2="931.91" y2="741.52" gradientUnits="userSpaceOnUse"><stop offset="0" stop-color="#dbdcdc"/><stop offset="1" stop-color="#fff"/></linearGradient><clipPath id="clip-path-4" transform="translate(0.04)"><path class="cls-1" d="M1.63,434.47c588.25-189.14,944.29,493.25,1464.62-8.38C1584.74,307,1749.14,240.84,1920,243.23V112.61q-7.65-3.72-15.4-7.23A634.75,634.75,0,0,0,1660.36,49.1c-174.14-4.94-342.32,61.41-462.94,182.66C760.68,652.81,439.68,239.69,0,207.94V435l1.67-.54"/></clipPath><linearGradient id="linear-gradient-5" x1="75.42" y1="436.06" x2="1095.92" y2="493.6" xlink:href="#linear-gradient-4"/><clipPath id="clip-path-5" transform="translate(0.04)"><path class="cls-1" d="M0,207.94c439.72,31.75,760.72,444.87,1197.46,23.82C1318,110.51,1486.22,44.16,1660.36,49.1a634.75,634.75,0,0,1,244.24,56.28A610.18,610.18,0,0,0,1777.8,0H1107.3A612.12,612.12,0,0,0,997.74,87.32C629.72,442.11,343.89,204.61,0,102.08Z"/></clipPath><linearGradient id="linear-gradient-6" x1="1448.2" y1="81.07" x2="596.41" y2="502.49" xlink:href="#linear-gradient-3"/><clipPath id="clip-path-6" transform="translate(0.04)"><path class="cls-1" d="M0,102.08c343.93,102.53,629.76,340,997.78-14.76A612.48,612.48,0,0,1,1107.3,0H0Z"/></clipPath><linearGradient id="linear-gradient-7" x1="-78.73" y1="161.46" x2="653.75" y2="230.49" xlink:href="#linear-gradient-2"/></defs><g id="BACKGROUND"><rect class="cls-2" x="0.04" width="1920" height="1080"/></g><g id="OBJECK"><g class="cls-3"><rect class="cls-4" width="1920.04" height="1080"/><g class="cls-5"><rect class="cls-6" y="691.75" width="1920.04" height="682.39"/></g><g class="cls-7"><rect class="cls-8" y="526.61" width="1920.04" height="847.53"/></g><g class="cls-9"><rect class="cls-10" y="240.84" width="1920.04" height="973.02"/></g><g class="cls-11"><rect class="cls-12" y="44.16" width="1920.04" height="883.57"/></g><g class="cls-13"><rect class="cls-14" width="1904.64" height="652.81"/></g><g class="cls-15"><rect class="cls-16" width="1107.34" height="442.11"/></g></g></g></svg>