<svg xmlns="http://www.w3.org/2000/svg" xmlns:xlink="http://www.w3.org/1999/xlink" viewBox="0 0 1920.04 1374.14"><defs><style>.cls-1{fill:none;clip-rule:evenodd;}.cls-2{isolation:isolate;}.cls-3{fill:url(#linear-gradient);}.cls-4{opacity:0.2;}.cls-22,.cls-25,.cls-27,.cls-5{fill:#fff;}.cls-6{clip-path:url(#clip-path);}.cls-7{fill:url(#linear-gradient-2);}.cls-8{clip-path:url(#clip-path-2);}.cls-9{fill:url(#linear-gradient-3);}.cls-10{clip-path:url(#clip-path-3);}.cls-11{fill:url(#linear-gradient-4);}.cls-12{clip-path:url(#clip-path-4);}.cls-13{fill:url(#linear-gradient-5);}.cls-14{clip-path:url(#clip-path-5);}.cls-15{fill:url(#linear-gradient-6);}.cls-16{clip-path:url(#clip-path-6);}.cls-17{fill:url(#linear-gradient-7);}.cls-18{opacity:0.3;fill:url(#linear-gradient-8);}.cls-19{fill:url(#linear-gradient-9);}.cls-20{opacity:0.26;fill:url(#linear-gradient-10);}.cls-21{opacity:0.68;}.cls-22{mix-blend-mode:soft-light;}.cls-23{fill:url(#linear-gradient-11);}.cls-24{fill:url(#linear-gradient-12);}.cls-25{opacity:0.73;}.cls-26{fill:url(#linear-gradient-13);}.cls-27,.cls-31{opacity:0.64;}.cls-28{fill:url(#linear-gradient-14);}.cls-29{fill:url(#linear-gradient-15);}.cls-30{fill:url(#linear-gradient-16);}.cls-32{fill:url(#linear-gradient-17);}.cls-33{fill:url(#linear-gradient-18);}.cls-34{fill:url(#linear-gradient-19);}.cls-35{fill:url(#linear-gradient-20);}.cls-36{fill:url(#linear-gradient-21);}.cls-37{fill:url(#linear-gradient-22);}.cls-38{fill:url(#linear-gradient-23);}.cls-39{fill:url(#linear-gradient-24);}.cls-40{fill:url(#linear-gradient-25);}.cls-41{fill:url(#linear-gradient-26);}.cls-42{fill:url(#linear-gradient-27);}.cls-43{fill:url(#linear-gradient-28);}.cls-44{fill:url(#linear-gradient-29);}.cls-45{fill:url(#linear-gradient-30);}.cls-46{fill:url(#linear-gradient-31);}.cls-47{fill:url(#linear-gradient-32);}.cls-48{fill:url(#linear-gradient-33);}.cls-49{fill:#e78456;}.cls-50{fill:url(#_31);}.cls-51{fill:url(#_31-2);}.cls-52{fill:url(#_31-3);}.cls-53{fill:url(#linear-gradient-34);}</style><linearGradient id="linear-gradient" x1="462.49" y1="779.81" x2="1822.83" y2="124.15" gradientUnits="userSpaceOnUse"><stop offset="0" stop-color="#aa236d"/><stop offset="1" stop-color="#58246d"/></linearGradient><clipPath id="clip-path" transform="translate(0.04)"><path class="cls-1" d="M1608.31,872.5C1088,1374.14,732,691.75,143.7,880.88A790.25,790.25,0,0,0,0,943.39V1080H1920V703.61C1802.17,728.75,1693.41,787,1608.31,872.5"/></clipPath><linearGradient id="linear-gradient-2" x1="1813.02" y1="776.27" x2="554.11" y2="1155.08" gradientUnits="userSpaceOnUse"><stop offset="0" stop-color="#b4b5b5"/><stop offset="1" stop-color="#fff"/></linearGradient><clipPath id="clip-path-2" transform="translate(0.04)"><path class="cls-1" d="M143.7,880.88C732,691.75,1088,1374.14,1608.31,872.5,1693.41,787,1802.17,728.75,1920,703.61V530.19c-172.41-3.58-338.58,62.66-458.08,182.78C942.37,1213.85,586.63,534.27,0,720.51V943.39A790.25,790.25,0,0,1,143.7,880.88"/></clipPath><linearGradient id="linear-gradient-3" x1="99.71" y1="845.45" x2="1356.89" y2="998.77" gradientUnits="userSpaceOnUse"><stop offset="0" stop-color="#c8c8c9"/><stop offset="1" stop-color="#fff"/></linearGradient><clipPath id="clip-path-3" transform="translate(0.04)"><path class="cls-1" d="M0,720.51c586.67-186.24,942.41,493.34,1462-7.54,119.5-120.12,285.67-186.36,458.08-182.78v-287c-170.86-2.39-335.26,63.75-453.75,182.86C945.92,927.72,589.88,245.33,1.63,434.47L0,435Z"/></clipPath><linearGradient id="linear-gradient-4" x1="1705.62" y1="351.24" x2="931.91" y2="741.52" gradientUnits="userSpaceOnUse"><stop offset="0" stop-color="#dbdcdc"/><stop offset="1" stop-color="#fff"/></linearGradient><clipPath id="clip-path-4" transform="translate(0.04)"><path class="cls-1" d="M1.63,434.47c588.25-189.14,944.29,493.25,1464.62-8.38C1584.74,307,1749.14,240.84,1920,243.23V112.61q-7.65-3.72-15.4-7.23A634.75,634.75,0,0,0,1660.36,49.1c-174.14-4.94-342.32,61.41-462.94,182.66C760.68,652.81,439.68,239.69,0,207.94V435l1.67-.54"/></clipPath><linearGradient id="linear-gradient-5" x1="75.42" y1="436.06" x2="1095.92" y2="493.6" xlink:href="#linear-gradient-4"/><clipPath id="clip-path-5" transform="translate(0.04)"><path class="cls-1" d="M0,207.94c439.72,31.75,760.72,444.87,1197.46,23.82C1318,110.51,1486.22,44.16,1660.36,49.1a634.75,634.75,0,0,1,244.24,56.28A610.18,610.18,0,0,0,1777.8,0H1107.3A612.12,612.12,0,0,0,997.74,87.32C629.72,442.11,343.89,204.61,0,102.08Z"/></clipPath><linearGradient id="linear-gradient-6" x1="1448.2" y1="81.07" x2="596.41" y2="502.49" xlink:href="#linear-gradient-3"/><clipPath id="clip-path-6" transform="translate(0.04)"><path class="cls-1" d="M0,102.08c343.93,102.53,629.76,340,997.78-14.76A612.48,612.48,0,0,1,1107.3,0H0Z"/></clipPath><linearGradient id="linear-gradient-7" x1="-78.73" y1="161.46" x2="653.75" y2="230.49" xlink:href="#linear-gradient-2"/><linearGradient id="linear-gradient-8" x1="1807.16" y1="921.28" x2="1222.88" y2="410.03" gradientUnits="userSpaceOnUse"><stop offset="0" stop-color="#b37cff"/><stop offset="1" stop-color="#f895e7"/></linearGradient><linearGradient id="linear-gradient-9" x1="1318.46" y1="508.97" x2="1179.34" y2="191.28" gradientTransform="translate(1813.95 -814.14) rotate(87.49)" gradientUnits="userSpaceOnUse"><stop offset="0" stop-color="#a737d5"/><stop offset="1" stop-color="#ef497a"/></linearGradient><linearGradient id="linear-gradient-10" x1="1046.49" y1="517.81" x2="1581.32" y2="517.81" xlink:href="#linear-gradient-8"/><linearGradient id="linear-gradient-11" x1="1516.79" y1="117.53" x2="1292.4" y2="560.21" gradientUnits="userSpaceOnUse"><stop offset="0" stop-color="#fdf53f"/><stop offset="0.66" stop-color="#e57a58"/><stop offset="1" stop-color="#d93c65"/></linearGradient><linearGradient id="linear-gradient-12" x1="1391.47" y1="221.82" x2="1195.98" y2="510.21" xlink:href="#linear-gradient-11"/><linearGradient id="linear-gradient-13" x1="1314.99" y1="343.4" x2="912.45" y2="609.23" gradientUnits="userSpaceOnUse"><stop offset="0" stop-color="#fdf53f"/><stop offset="1" stop-color="#d93c65"/></linearGradient><linearGradient id="linear-gradient-14" x1="1186.95" y1="397.74" x2="1105.78" y2="474.77" gradientTransform="matrix(1, 0, 0, 1, 0, 0)" xlink:href="#linear-gradient-9"/><linearGradient id="linear-gradient-15" x1="1239.34" y1="402.42" x2="1167.28" y2="470.81" gradientTransform="matrix(1, 0, 0, 1, 0, 0)" xlink:href="#linear-gradient-9"/><linearGradient id="linear-gradient-16" x1="1297.7" y1="402.56" x2="1225.65" y2="470.95" gradientTransform="matrix(1, 0, 0, 1, 0, 0)" xlink:href="#linear-gradient-9"/><linearGradient id="linear-gradient-17" x1="-1939.08" y1="548.78" x2="-2094.23" y2="795.43" gradientTransform="matrix(-1, 0, 0, 1, -539.05, 0)" gradientUnits="userSpaceOnUse"><stop offset="0" stop-color="#cb236d"/><stop offset="1" stop-color="#4c246d"/></linearGradient><linearGradient id="linear-gradient-18" x1="-1794.42" y1="724.19" x2="-1737.11" y2="784.05" gradientTransform="matrix(-1, 0, 0, 1, -539.05, 0)" gradientUnits="userSpaceOnUse"><stop offset="0" stop-color="#2b3582"/><stop offset="1" stop-color="#150e42"/></linearGradient><linearGradient id="linear-gradient-19" x1="-1882.88" y1="664.82" x2="-1823.21" y2="440.05" gradientTransform="matrix(-1, 0, 0, 1, -539.05, 0)" gradientUnits="userSpaceOnUse"><stop offset="0" stop-color="#53d8ff"/><stop offset="1" stop-color="#3840f7"/></linearGradient><linearGradient id="linear-gradient-20" x1="-1718.4" y1="874.44" x2="-1609.99" y2="954" xlink:href="#linear-gradient-18"/><linearGradient id="linear-gradient-21" x1="-1666.59" y1="832.12" x2="-1894.68" y2="645.81" gradientTransform="matrix(-1, 0, 0, 1, -539.05, 0)" xlink:href="#linear-gradient-11"/><linearGradient id="linear-gradient-22" x1="-1604.72" y1="965.71" x2="-1832.81" y2="779.4" gradientTransform="matrix(-1, 0, 0, 1, -539.05, 0)" xlink:href="#linear-gradient-11"/><linearGradient id="linear-gradient-23" x1="-1716.84" y1="723.53" x2="-1943.6" y2="809.06" xlink:href="#linear-gradient-19"/><linearGradient id="linear-gradient-24" x1="-1893.54" y1="580.38" x2="-1967.14" y2="667.91" gradientTransform="matrix(-1, 0, 0, 1, -539.05, 0)" gradientUnits="userSpaceOnUse"><stop offset="0" stop-color="#f9b776"/><stop offset="1" stop-color="#f47960"/></linearGradient><linearGradient id="linear-gradient-25" x1="-2100.52" y1="418.21" x2="-1982.6" y2="831.9" gradientTransform="matrix(-1, 0, 0, 1, -539.05, 0)" xlink:href="#linear-gradient-11"/><linearGradient id="linear-gradient-26" x1="-1979.36" y1="660.02" x2="-1832.25" y2="458.76" xlink:href="#linear-gradient-24"/><linearGradient id="linear-gradient-27" x1="-2069.35" y1="493.24" x2="-2063.93" y2="444.47" xlink:href="#linear-gradient-24"/><linearGradient id="linear-gradient-28" x1="-2040.45" y1="450.7" x2="-2064.33" y2="371.92" xlink:href="#linear-gradient-24"/><linearGradient id="linear-gradient-29" x1="-2061.95" y1="306.33" x2="-2039.8" y2="432.7" xlink:href="#linear-gradient-18"/><linearGradient id="linear-gradient-30" x1="-2065.19" y1="458.2" x2="-2089.07" y2="379.42" xlink:href="#linear-gradient-24"/><linearGradient id="linear-gradient-31" x1="-1869.97" y1="614.48" x2="-1758.02" y2="614.48" xlink:href="#linear-gradient-18"/><linearGradient id="linear-gradient-32" x1="-1776.11" y1="567.01" x2="-1844.24" y2="636.13" gradientTransform="matrix(-1, 0, 0, 1, -539.05, 0)" xlink:href="#linear-gradient-13"/><linearGradient id="linear-gradient-33" x1="-1856.38" y1="663.42" x2="-1945.89" y2="687.95" xlink:href="#linear-gradient-18"/><linearGradient id="_31" x1="1709.24" y1="809.95" x2="1784.52" y2="550.48" gradientUnits="userSpaceOnUse"><stop offset="0" stop-color="#53d8ff"/><stop offset="0.42" stop-color="#4898fc"/><stop offset="1" stop-color="#3840f7"/></linearGradient><linearGradient id="_31-2" x1="1672.83" y1="776.73" x2="1719.28" y2="514.05" xlink:href="#_31"/><linearGradient id="_31-3" x1="1698.43" y1="849.5" x2="1611.62" y2="541.75" xlink:href="#_31"/><linearGradient id="linear-gradient-34" x1="1785.01" y1="750.07" x2="1669.69" y2="902.23" gradientTransform="matrix(1, 0, 0, 1, 0, 0)" xlink:href="#linear-gradient-9"/></defs><g class="cls-2"><g id="BACKGROUND"><rect class="cls-3" x="0.04" width="1920" height="1080"/></g><g id="DESIGN"><g class="cls-4"><rect class="cls-5" width="1920.04" height="1080"/><g class="cls-6"><rect class="cls-7" y="691.75" width="1920.04" height="682.39"/></g><g class="cls-8"><rect class="cls-9" y="526.61" width="1920.04" height="847.53"/></g><g class="cls-10"><rect class="cls-11" y="240.84" width="1920.04" height="973.02"/></g><g class="cls-12"><rect class="cls-13" y="44.16" width="1920.04" height="883.57"/></g><g class="cls-14"><rect class="cls-15" width="1904.64" height="652.81"/></g><g class="cls-16"><rect class="cls-17" width="1107.34" height="442.11"/></g></g></g><g id="OBJECK"><path class="cls-18" d="M1707.86,655.77c-75.51,177.8-276.66,277.4-451.09,250.53-28.39-4.37-106.2-17.39-175.1-78.83-132.63-118.28-161-352.48-54-517.53,77.86-120.13,217.45-188.22,350.08-184.82,28.57.74,138.06,5.26,234.28,84.6a360.59,360.59,0,0,1,73.4,83.28C1751.4,396.16,1757.07,539.89,1707.86,655.77Z" transform="translate(0.04)"/><ellipse class="cls-19" cx="1332.31" cy="540.59" rx="315.73" ry="340.79" transform="translate(733.84 1847.91) rotate(-87.49)"/><ellipse class="cls-20" cx="1313.9" cy="517.81" rx="267.42" ry="252.62"/><g class="cls-21"><path class="cls-22" d="M1419.37,542.12c-.08,55.68-3.9,111.48-13.71,166.38-2.49,13.71-5.37,27.36-8.8,40.87a394.59,394.59,0,0,1-12.28,40c-4.91,13.06-10.6,25.94-18.33,37.7a75.08,75.08,0,0,1-13.75,16,38.8,38.8,0,0,1-9,5.8A27,27,0,0,1,1333,851.4a26.53,26.53,0,0,1-10.62-1.95,36.89,36.89,0,0,1-9.21-5.49,71.27,71.27,0,0,1-14.05-15.79c-7.86-11.68-13.64-24.53-18.59-37.57a386.25,386.25,0,0,1-12.42-40c-3.46-13.51-6.37-27.15-8.88-40.86-5-27.42-8.4-55.11-10.7-82.87s-3.43-55.62-3.58-83.49c-.06-13.92.32-27.85.81-41.77s1.29-27.82,2.31-41.71c2.06-27.78,5.14-55.49,9.72-83,2.29-13.74,5-27.43,8.19-41a390.92,390.92,0,0,1,11.63-40.16c2.33-6.57,4.89-13.07,7.81-19.42a142.58,142.58,0,0,1,10-18.43,68.81,68.81,0,0,1,13.75-15.89,35,35,0,0,1,9.08-5.44,25.8,25.8,0,0,1,10.45-1.86A27.69,27.69,0,0,1,1339,237.2a40.78,40.78,0,0,1,9,5.6,76.65,76.65,0,0,1,14,15.62c8,11.51,14,24.21,19.25,37.13a380.35,380.35,0,0,1,13.2,39.68c3.71,13.43,6.86,27,9.58,40.68C1414.83,430.62,1419.21,486.42,1419.37,542.12Zm-4.12,0q.07-41.62-3.31-83.15a800.31,800.31,0,0,0-10.85-82.49c-2.56-13.63-5.55-27.18-9.1-40.58a377.28,377.28,0,0,0-12.68-39.58c-5-12.88-10.89-25.53-18.65-37a75.11,75.11,0,0,0-13.58-15.46,39.34,39.34,0,0,0-8.61-5.5,25.83,25.83,0,0,0-9.83-2.4,24.27,24.27,0,0,0-9.91,1.87,33.7,33.7,0,0,0-8.67,5.33,67,67,0,0,0-13.25,15.68,140.18,140.18,0,0,0-9.68,18.3c-2.81,6.32-5.28,12.79-7.53,19.34a391.78,391.78,0,0,0-11.12,40.05c-3.06,13.52-5.57,27.17-7.71,40.88-4.25,27.42-7,55.06-8.77,82.76s-2.38,55.46-2.33,83.21.86,55.5,2.92,83.17,5.26,55.26,10,82.58c2.38,13.66,5.17,27.25,8.51,40.7a382.23,382.23,0,0,0,12,39.75c4.81,13,10.43,25.69,18,37.17a69.43,69.43,0,0,0,13.45,15.36,34.64,34.64,0,0,0,8.6,5.22,23.76,23.76,0,0,0,9.72,1.85,24.9,24.9,0,0,0,9.63-2.36,36.68,36.68,0,0,0,8.42-5.53,72.8,72.8,0,0,0,13.17-15.63c7.46-11.56,13-24.33,17.75-37.31a387.9,387.9,0,0,0,11.87-39.79c3.31-13.46,6.06-27.05,8.43-40.71,4.73-27.33,7.87-54.93,10-82.6S1415.26,569.87,1415.25,542.12Z" transform="translate(0.04)"/><path class="cls-22" d="M1559.85,542.12a406.18,406.18,0,0,1-14.41,106.31c-9.76,34.5-24.49,67.7-44.48,97.5a280.73,280.73,0,0,1-34,41.6,238.58,238.58,0,0,1-41.82,33.67,201.53,201.53,0,0,1-48.8,22.31,182.51,182.51,0,0,1-106.1,0,201.4,201.4,0,0,1-48.83-22.27,238.83,238.83,0,0,1-41.88-33.64,281.31,281.31,0,0,1-34-41.6c-20-29.8-34.78-63-44.6-97.53a384.86,384.86,0,0,1-10.79-52.71,396,396,0,0,1,0-107.36,386,386,0,0,1,10.83-52.7c9.84-34.51,24.62-67.69,44.66-97.46a280.91,280.91,0,0,1,34-41.55,237.52,237.52,0,0,1,41.87-33.58,202.47,202.47,0,0,1,48.8-22.2,181.17,181.17,0,0,1,105.93.05,202.12,202.12,0,0,1,48.76,22.23,237.72,237.72,0,0,1,41.81,33.61,280.44,280.44,0,0,1,34,41.55c20,29.77,34.75,62.94,44.54,97.43A405.7,405.7,0,0,1,1559.85,542.12Zm-4.73,0A401.51,401.51,0,0,0,1541.3,437c-9.41-34.17-23.57-67.16-43.07-96.82a278,278,0,0,0-33.2-41.49A232.16,232.16,0,0,0,1424,265a198.44,198.44,0,0,0-48.17-22.27,176.72,176.72,0,0,0-104.88,0,198,198,0,0,0-48.14,22.31,231.92,231.92,0,0,0-41,33.7,278.23,278.23,0,0,0-33.14,41.49c-19.45,29.66-33.59,62.64-42.95,96.79a389.8,389.8,0,0,0-10.32,52.09,404.68,404.68,0,0,0,0,106,389.31,389.31,0,0,0,10.36,52.07c9.39,34.14,23.54,67.09,43,96.72a278,278,0,0,0,33.15,41.45,231,231,0,0,0,41,33.64,199.32,199.32,0,0,0,48.1,22.23,175.56,175.56,0,0,0,104.72,0,198.64,198.64,0,0,0,48.13-22.19,231.26,231.26,0,0,0,41.06-33.61A277.13,277.13,0,0,0,1498.1,744c19.51-29.63,33.7-62.6,43.13-96.76A401.35,401.35,0,0,0,1555.12,542.12Z" transform="translate(0.04)"/><path class="cls-22" d="M1047.34,419.73l71-.58,71-.32,142.06-.26,142.06.28,71,.36,71,.62a.21.21,0,0,1,.21.21.21.21,0,0,1-.21.21l-71,.62-71,.35-142.06.29-142.06-.26-71-.33-71-.57a.31.31,0,0,1-.31-.31A.31.31,0,0,1,1047.34,419.73Z" transform="translate(0.04)"/><path class="cls-22" d="M1129.74,300.76c16.81-.27,33.62-.38,50.43-.57l50.42-.33c16.81-.14,33.62-.12,50.43-.16l50.43-.1,100.86.29,50.42.35c16.81.21,33.62.34,50.43.62a.21.21,0,1,1,0,.42c-16.81.29-33.62.41-50.43.62l-50.42.35-100.86.29-50.43-.09c-16.81-.05-33.62,0-50.43-.17l-50.42-.32c-16.81-.2-33.62-.31-50.43-.58a.31.31,0,0,1,0-.62Z" transform="translate(0.04)"/><path class="cls-22" d="M1022.65,538.69l77.2-.57,77.2-.32,154.4-.27,154.4.29,77.2.36,77.2.62a.2.2,0,0,1,.2.21.2.2,0,0,1-.2.2l-77.2.62-77.2.36-154.4.29-154.4-.27-77.2-.32-77.2-.57a.32.32,0,0,1,0-.63Z" transform="translate(0.04)"/><path class="cls-22" d="M1047.34,657.66l71-.57,71-.33,142.06-.26,142.06.29,71,.35,71,.62a.21.21,0,0,1,.21.21.21.21,0,0,1-.21.21l-71,.62-71,.36-142.06.28-142.06-.26-71-.32-71-.58a.31.31,0,0,1-.31-.31A.31.31,0,0,1,1047.34,657.66Z" transform="translate(0.04)"/><path class="cls-22" d="M1543.33,778H1139.9a1.09,1.09,0,1,1,0-2.18h403.43a1.09,1.09,0,1,1,0,2.18Z" transform="translate(0.04)"/></g><path class="cls-23" d="M1492.28,285.79h-73.74a10.21,10.21,0,0,1-10.21-10.21V201.64a10.22,10.22,0,0,1,9.39-10.18l78.57-6.36a10.21,10.21,0,0,1,11,10.79l-4.82,80.3A10.22,10.22,0,0,1,1492.28,285.79Z" transform="translate(0.04)"/><path class="cls-5" d="M1429.06,271.4a7.83,7.83,0,0,1-7.82-7.81V216.18a2.42,2.42,0,1,1,4.84,0v47.41a3,3,0,0,0,3.15,3l56.17-3.34a3,3,0,0,0,2.8-3V213.7a3,3,0,0,0-3.27-2.95l-46.72,4.63a3,3,0,0,0-2.12,4.69l17.83,24.6a2.91,2.91,0,0,0,2.38,1.22h0a2.94,2.94,0,0,0,2.37-1.18l19.64-26.16a2.42,2.42,0,1,1,3.87,2.91l-19.63,26.15a7.6,7.6,0,0,1-6.31,3.13,7.76,7.76,0,0,1-6.26-3.23l-17.83-24.6a7.81,7.81,0,0,1,5.56-12.35l46.73-4.63a7.81,7.81,0,0,1,8.58,7.77v46.54a7.83,7.83,0,0,1-7.35,7.8l-56.17,3.34Z" transform="translate(0.04)"/><path class="cls-24" d="M1386.48,277.15v63.9a14.22,14.22,0,0,1-13.55,14.2L1293,359a14.22,14.22,0,0,1-14.88-14.2V277.15a14.21,14.21,0,0,1,14.21-14.22h79.91A14.22,14.22,0,0,1,1386.48,277.15Z" transform="translate(0.04)"/><path class="cls-25" d="M1291.67,311.33c-2.7-15.83,3-24.63,8.31-29.22,9.93-8.65,27.65-10.65,45.13-5.1,17.14,5.44,29.23,21.19,26.94,35.12-.91,5.52-5.6,17.58-29.1,19.5a116.19,116.19,0,0,0,17.75,7h0a2.37,2.37,0,0,1-.58,4.66c-.69,0-1.57,0-2.6,0C1342.92,343.33,1296.72,341,1291.67,311.33Zm67.88,31.41Zm.48-3.7h0Zm-25.42-11.43c19.38.4,31.48-5.54,33.23-16.18,1.92-11.71-9.07-25.61-24-30.35-13.19-4.19-31-4.5-41,4.24-6.47,5.64-8.79,14.15-6.9,25.3,3.75,21.95,34.44,27.07,52.58,28.17-8-3.34-14.52-7-14.92-7.19l-7.44-4.15Z" transform="translate(0.04)"/><path class="cls-26" d="M967.61,391.26,1317,389.73a6,6,0,0,1,6,6l-.75,122.31a6,6,0,0,1-6.16,6c-30.81-.92-346.61-5-352.65-4.72S960.79,423,961.68,397A6,6,0,0,1,967.61,391.26Z" transform="translate(0.04)"/><path class="cls-5" d="M1316.35,519.28h0c-19.69-.59-208.4-2.94-299.09-4.07l-50.36-.64h-.46l-.09-.46c-2.14-12.09-2.1-52.51.11-116.9a1.25,1.25,0,0,1,1.24-1.21l349.42-1.52a1.25,1.25,0,0,1,.9.37,1.22,1.22,0,0,1,.37.89l-.75,122.3A1.25,1.25,0,0,1,1316.35,519.28Zm-349-5.84,49.89.63c90.69,1.13,279.41,3.49,299.11,4.08h0s.09-.06.09-.12l.74-122.31-.13-.69v.57l-349.42,1.53a.12.12,0,0,0-.12.11C965.36,460.75,965.29,500.88,967.34,513.44Z" transform="translate(0.04)"/><path class="cls-27" d="M982.56,422.85h0c0,3.3,1.11,6,2.47,6h133.84c1.36,0,2.46-2.68,2.46-6h0c0-3.31-1.1-6-2.46-6H985C983.67,416.86,982.56,419.54,982.56,422.85Z" transform="translate(0.04)"/><path class="cls-27" d="M982.56,443.26h0c0,3.31,1.11,6,2.47,6h133.84c1.36,0,2.46-2.68,2.46-6h0c0-3.31-1.1-6-2.46-6H985C983.67,437.27,982.56,440,982.56,443.26Z" transform="translate(0.04)"/><path class="cls-27" d="M982.56,463.68h0c0,3.3,1.11,6,2.47,6h133.84c1.36,0,2.46-2.68,2.46-6h0c0-3.31-1.1-6-2.46-6H985C983.67,457.69,982.56,460.37,982.56,463.68Z" transform="translate(0.04)"/><path class="cls-27" d="M982.56,484.09h0c0,3.31,1.11,6,2.47,6h133.84c1.36,0,2.46-2.68,2.46-6h0c0-3.31-1.1-6-2.46-6H985C983.67,478.1,982.56,480.78,982.56,484.09Z" transform="translate(0.04)"/><circle class="cls-5" cx="1155.29" cy="427.06" r="23.28"/><circle class="cls-5" cx="1213.15" cy="427.06" r="23.28"/><circle class="cls-5" cx="1271.01" cy="427.83" r="23.28"/><path class="cls-28" d="M1169.08,422.14a15,15,0,1,1-13.83-9.27l.75,0V409.1l-.75,0a18.73,18.73,0,1,0,17.31,11.55Z" transform="translate(0.04)"/><path class="cls-29" d="M1220.82,440.48a15,15,0,1,1-8-27.61l.76,0V409.1l-.76,0a18.75,18.75,0,1,0,9.85,34.7Z" transform="translate(0.04)"/><path class="cls-30" d="M1283.45,436.23a15,15,0,1,1-12.37-23.36l.76,0V409.1l-.76,0a18.75,18.75,0,1,0,15.44,29.38Z" transform="translate(0.04)"/><g class="cls-31"><path class="cls-5" d="M1174.22,460.21h-37.94a4.31,4.31,0,1,0,0,8.62h37.94a4.31,4.31,0,0,0,0-8.62Z" transform="translate(0.04)"/><path class="cls-5" d="M1232.08,460.21h-37.94a4.31,4.31,0,0,0,0,8.62h37.94a4.31,4.31,0,1,0,0-8.62Z" transform="translate(0.04)"/><path class="cls-5" d="M1252,468.83h37.94a4.31,4.31,0,0,0,0-8.62H1252a4.31,4.31,0,1,0,0,8.62Z" transform="translate(0.04)"/><rect class="cls-5" x="1132" y="473.62" width="46.56" height="34.02" rx="4.31"/><rect class="cls-5" x="1189.87" y="473.62" width="46.56" height="34.02" rx="4.31"/><rect class="cls-5" x="1247.73" y="473.62" width="46.56" height="34.02" rx="4.31"/></g><path class="cls-32" d="M1695.52,450.46s58.57,32.45,63.42,87.36.4,282.86-117.06,339S1369,920,1309.44,913.82s-92.51-46.58-99.88-74.43-19.28-131.58,43.33-165S1381.25,589.62,1447,539.7,1625.26,408.3,1695.52,450.46Z" transform="translate(0.04)"/><path class="cls-33" d="M1271.35,693.28s15.81.83,17.75,33.36c0,0-36.66,32.86-86.18,40.68-3.72.59,5.2-25.37,6.54-28.89C1215.84,721.69,1235.92,710.92,1271.35,693.28Z" transform="translate(0.04)"/><path class="cls-34" d="M1449.4,655H1416S1313.64,542,1246.48,530.54c0,0-46.75,59.67,2.49,171.17,4,9,15,13,23.3,7.68a13.3,13.3,0,0,0,5.33-6.35l-4-95.2S1361,684.23,1376.16,699,1468.51,704.73,1449.4,655Z" transform="translate(0.04)"/><path class="cls-35" d="M1126.86,892.46c14-12.25,36.26-26,68.41-29.93l10.88,6.65a118.66,118.66,0,0,1-19.6,21c-11.65,6.76-29.63,15.92-44.53,17.91C1127.53,910.05,1125.39,901.29,1126.86,892.46Z" transform="translate(0.04)"/><path class="cls-36" d="M1209.46,738.43c8.61,2.79,12.4,15,34.25,6.92a193.38,193.38,0,0,0,45-23.68c.18,1.57.33,3.22.44,5,0,0-38.65,36.76-88.17,44.59a4.93,4.93,0,0,1-5.33-6.64A124.39,124.39,0,0,1,1209.46,738.43Z" transform="translate(0.04)"/><path class="cls-37" d="M1116.33,902.92a115.75,115.75,0,0,1,10.53-10.46c-1.47,8.83.67,17.59,15.16,15.66,14.9-2,32.88-11.15,44.53-17.91-14.6,12.45-36.8,25.66-64.83,24.88A7.35,7.35,0,0,1,1116.33,902.92Z" transform="translate(0.04)"/><path class="cls-38" d="M1448.17,679.17,1292,680.86s-89.22,73.82-105.4,186.38c0,0-2.69,8.27,13.44,9.69,0,0,53.94-35.23,89.11-97.52,43.12-76.37,128.56-42,128.56-42,28.07-20.24,67.74-24.36,97.63-31.1Z" transform="translate(0.04)"/><path class="cls-39" d="M1444.49,553.32s-16.82,84.29-99.23,117.63L1316,667.5l-6.92,11,68.76,2.19s58.77-23.28,89.91-86.71C1468.73,591.91,1485.88,556.51,1444.49,553.32Z" transform="translate(0.04)"/><path class="cls-40" d="M1435.47,677.8s19.13-52,23.24-102.51c0,0-14-12-22.74-17.21a6.33,6.33,0,0,1-2.47-8.2c6.43-13.32,45.31-65.62,48.23-66.34,15.83-4,80.76-34.83,126.48,27.72,19.63,26.85-3.89,109.48-92.92,195.06l-18.37,3.51Z" transform="translate(0.04)"/><path class="cls-41" d="M1509.17,586.69S1456,649.6,1388.1,658.8c0,0-17.56-16-30.62-10.29s-31,30.94-31,30.94h87.23s82.47-2.91,123.69-52.92C1534.13,609,1524.2,598.57,1509.17,586.69Z" transform="translate(0.04)"/><path class="cls-42" d="M1540.17,439.41l11.62,38.77a4.27,4.27,0,0,1-1.65,4.75c-5.6,3.84-20.23,11.46-40.3,4.05a6.32,6.32,0,0,1-4.07-5.43L1503,447.77Z" transform="translate(0.04)"/><path class="cls-43" d="M1472.09,408s5.71,40.2,21.15,52.56,45.53,3.05,55.69-27.25l-20.25-51.81Z" transform="translate(0.04)"/><path class="cls-44" d="M1531,415a2,2,0,0,1-2.58-1.6c-.56-3.71-2-11.05-4.77-16.05,0,0,1.48-5.28-13.33,2.69s-37,19.67-50.12,12.7c-12.76-6.79-25.68-41,8-34.65a2,2,0,0,0,2.37-2.08c-.42-5.62.14-18.55,13.23-22.7,12.26-3.89,5.68,2.41,8.44,5.75.81,1-1-3.35,16.38-.82,6,.87,13.64-15,28.32-8.52,12.08,5.33,14,12.77,13.76,17.41a2,2,0,0,0,2.83,1.89c3.7-1.7,9.65-2.59,15.36,4.56,7.88,9.88-3.39,18.44-6.77,20.69a2,2,0,0,0-.9,1.64c0,5.14-.83,27.55-12.06,40.19a2,2,0,0,1-3.34-.58l-8.65-20.6a2,2,0,0,0-2.45-1.13Z" transform="translate(0.04)"/><path class="cls-45" d="M1530.78,419.21s5.28-21.51,13.31-14.52S1542,427,1532.8,430Z" transform="translate(0.04)"/><path class="cls-46" d="M1330.92,684.33l-39.17-130.61a13.35,13.35,0,0,0-11.88-9.49L1227,540.61a7.5,7.5,0,0,0-7.59,10l43.78,124.73a11,11,0,0,0,9.26,7.28l52.07,5.79Z" transform="translate(0.04)"/><path class="cls-47" d="M1258.69,598c2.92,5.91,8,9.36,11.28,7.73s3.61-7.75.69-13.66-8-9.35-11.28-7.72S1255.76,592.08,1258.69,598Z" transform="translate(0.04)"/><path class="cls-48" d="M1324.52,688.38h.25l111-5.61a5,5,0,1,0-.5-9.93l-111,5.61a5,5,0,0,0,.25,9.94Z" transform="translate(0.04)"/><path class="cls-49" d="M1458.71,576.17a.88.88,0,0,0,.88-.88c-.08-23.18,8.87-53.95,9-54.26a.88.88,0,1,0-1.69-.49c-.09.31-9.11,31.32-9,54.76A.87.87,0,0,0,1458.71,576.17Z" transform="translate(0.04)"/><path class="cls-49" d="M1509.17,587.56a.89.89,0,0,0,.69-.33c.24-.31,24.51-31.16,32.85-52.3a.88.88,0,0,0-.49-1.14.87.87,0,0,0-1.14.5c-8.25,20.9-32.36,51.54-32.61,51.85a.89.89,0,0,0,.15,1.24A.91.91,0,0,0,1509.17,587.56Z" transform="translate(0.04)"/><path class="cls-49" d="M1543.31,634.73l.66-.28c35.11-15,56.79-57,57-57.37a.88.88,0,0,0-1.57-.8c-.21.42-21.35,41.26-55.48,56.27l-3.62-5.11a.88.88,0,0,0-1.44,1Z" transform="translate(0.04)"/><path class="cls-50" d="M1722.81,888.28s63.9-147.62,15.52-303.15a1.21,1.21,0,0,0-2.25.25C1724.42,679.44,1720.94,781.31,1722.81,888.28Z" transform="translate(0.04)"/><path class="cls-5" d="M1723.06,885.17a.83.83,0,0,1-.22,0,.82.82,0,0,1-.57-1c11.29-40.12,15.59-108.41,17.21-158.64,1.75-54.45.82-100,.81-100.44a.82.82,0,0,1,.8-.84h0a.82.82,0,0,1,.82.81c0,.45.94,46-.81,100.52-1.62,50.32-5.93,118.76-17.27,159A.81.81,0,0,1,1723.06,885.17Z" transform="translate(0.04)"/><path class="cls-51" d="M1708.17,864.22s39.48-181.13-35.13-364.43a1.14,1.14,0,0,0-2.21.45C1674.85,613.76,1688.4,736.11,1708.17,864.22Z" transform="translate(0.04)"/><path class="cls-5" d="M1707.77,860.32h-.08a.82.82,0,0,1-.74-.89c8.87-93.52-24.9-309.67-25.25-311.84a.83.83,0,0,1,1.63-.26c.34,2.18,34.14,218.53,25.26,312.25A.82.82,0,0,1,1707.77,860.32Z" transform="translate(0.04)"/><path class="cls-52" d="M1701.91,913.34s18.91-158-75-300.22c-.61-.92-2.33-.36-2.14.72C1641.28,708.42,1668.2,808.94,1701.91,913.34Z" transform="translate(0.04)"/><path class="cls-5" d="M1701,910.25a.81.81,0,0,1-.82-.8c-.84-41.66-17-109.46-30.33-159-14.49-53.71-29-98.12-29.12-98.56a.82.82,0,0,1,.52-1,.83.83,0,0,1,1,.53c.14.44,14.64,44.88,29.15,98.63,13.39,49.63,29.54,117.58,30.38,159.41a.81.81,0,0,1-.81.83Z" transform="translate(0.04)"/><path class="cls-53" d="M1663,826.27h86.85a8.84,8.84,0,0,1,8.62,10.84c-5.55,24.08-12.21,48.5-25.84,73.3a14.32,14.32,0,0,1-12.53,7.45h-28.35a14,14,0,0,1-12.3-7.36c-10.92-20.29-21.42-44.47-26.61-71.92A10.36,10.36,0,0,1,1663,826.27Z" transform="translate(0.04)"/></g></g></svg>