<svg xmlns="http://www.w3.org/2000/svg" xmlns:xlink="http://www.w3.org/1999/xlink" viewBox="0 0 3050.91 2545.52"><defs><style>.cls-1{fill:none;}.cls-2{isolation:isolate;}.cls-3{clip-path:url(#clip-path);}.cls-4{fill:url(#Degradado_sin_nombre_12);}.cls-10,.cls-11,.cls-12,.cls-13,.cls-14,.cls-15,.cls-16,.cls-27,.cls-28,.cls-29,.cls-30,.cls-31,.cls-32,.cls-33,.cls-34,.cls-35,.cls-5,.cls-6,.cls-7,.cls-8,.cls-9{opacity:0.89;}.cls-10,.cls-11,.cls-12,.cls-13,.cls-14,.cls-15,.cls-16,.cls-17,.cls-18,.cls-19,.cls-20,.cls-21,.cls-22,.cls-23,.cls-24,.cls-25,.cls-26,.cls-27,.cls-28,.cls-29,.cls-30,.cls-31,.cls-32,.cls-33,.cls-34,.cls-35,.cls-36,.cls-5,.cls-6,.cls-7,.cls-8,.cls-9{mix-blend-mode:multiply;}.cls-5{fill:url(#radial-gradient);}.cls-6{fill:url(#Degradado_sin_nombre_25);}.cls-7{fill:url(#Degradado_sin_nombre_25-2);}.cls-8{fill:url(#Degradado_sin_nombre_25-3);}.cls-9{fill:url(#Degradado_sin_nombre_25-4);}.cls-10{fill:url(#Degradado_sin_nombre_25-5);}.cls-11{fill:url(#Degradado_sin_nombre_25-6);}.cls-12{fill:url(#Degradado_sin_nombre_25-7);}.cls-13{fill:url(#Degradado_sin_nombre_25-8);}.cls-14{fill:url(#Degradado_sin_nombre_25-9);}.cls-15{fill:url(#Degradado_sin_nombre_25-10);}.cls-16{fill:url(#Degradado_sin_nombre_25-11);}.cls-17,.cls-18,.cls-19,.cls-20,.cls-21,.cls-22,.cls-23,.cls-24,.cls-25,.cls-26{opacity:0.53;}.cls-17{fill:url(#Degradado_sin_nombre_25-12);}.cls-18{fill:url(#Degradado_sin_nombre_25-13);}.cls-19{fill:url(#Degradado_sin_nombre_25-14);}.cls-20{fill:url(#Degradado_sin_nombre_25-15);}.cls-21{fill:url(#Degradado_sin_nombre_25-16);}.cls-22{fill:url(#Degradado_sin_nombre_25-17);}.cls-23{fill:url(#Degradado_sin_nombre_25-18);}.cls-24{fill:url(#Degradado_sin_nombre_25-19);}.cls-25{fill:url(#Degradado_sin_nombre_25-20);}.cls-26{fill:url(#Degradado_sin_nombre_25-21);}.cls-27{fill:url(#Degradado_sin_nombre_25-22);}.cls-28{fill:url(#Degradado_sin_nombre_25-23);}.cls-29{fill:url(#Degradado_sin_nombre_25-24);}.cls-30{fill:url(#Degradado_sin_nombre_25-25);}.cls-31{fill:url(#Degradado_sin_nombre_25-26);}.cls-32{fill:url(#Degradado_sin_nombre_25-27);}.cls-33{fill:url(#Degradado_sin_nombre_25-28);}.cls-34{fill:url(#Degradado_sin_nombre_25-29);}.cls-35{fill:url(#Degradado_sin_nombre_25-30);}.cls-36{fill:url(#Degradado_sin_nombre_2);}</style><clipPath id="clip-path" transform="translate(508.23 775.59)"><rect class="cls-1" x="-7.63" width="1927.63" height="1091.23" transform="translate(1912.37 1091.23) rotate(180)"/></clipPath><linearGradient id="Degradado_sin_nombre_12" y1="535.06" x2="1927.63" y2="535.06" gradientTransform="translate(-7.63 9.87)" gradientUnits="userSpaceOnUse"><stop offset="0" stop-color="#4d4d4d"/><stop offset="1"/></linearGradient><radialGradient id="radial-gradient" cx="-2605.68" cy="-6605.26" r="601.74" gradientTransform="matrix(-0.7, -0.6, 0.07, -0.06, 15.82, -1147.21)" gradientUnits="userSpaceOnUse"><stop offset="0" stop-color="#231f20"/><stop offset="1" stop-color="#fff"/></radialGradient><radialGradient id="Degradado_sin_nombre_25" cx="880.26" cy="1459.95" r="368.58" gradientTransform="matrix(-1.01, -0.87, 0.15, -0.12, 2287.81, 1078.32)" gradientUnits="userSpaceOnUse"><stop offset="0"/><stop offset="1" stop-color="#fff" stop-opacity="0"/></radialGradient><radialGradient id="Degradado_sin_nombre_25-2" cx="571.89" cy="1217.1" r="368.58" gradientTransform="matrix(-1.01, -0.87, 0.15, -0.12, 2156.31, 1191.16)" xlink:href="#Degradado_sin_nombre_25"/><radialGradient id="Degradado_sin_nombre_25-3" cx="1098.79" cy="1212.15" r="368.58" gradientTransform="matrix(-1.01, -0.87, 0.15, -0.12, 2148.76, 1197.52)" xlink:href="#Degradado_sin_nombre_25"/><radialGradient id="Degradado_sin_nombre_25-4" cx="943.03" cy="750.19" r="368.58" gradientTransform="matrix(1.01, 0.87, -0.15, 0.12, 399.44, -608.21)" xlink:href="#Degradado_sin_nombre_25"/><radialGradient id="Degradado_sin_nombre_25-5" cx="1520.17" cy="751.49" r="368.58" gradientTransform="matrix(1.01, 0.87, -0.15, 0.12, 403.99, -611.99)" xlink:href="#Degradado_sin_nombre_25"/><radialGradient id="Degradado_sin_nombre_25-6" cx="1439.24" cy="958.27" r="368.58" gradientTransform="matrix(1.01, 0.87, -0.15, 0.12, 288.89, -513.3)" xlink:href="#Degradado_sin_nombre_25"/><radialGradient id="Degradado_sin_nombre_25-7" cx="632.93" cy="961.09" r="368.58" gradientTransform="matrix(1.01, 0.87, -0.15, 0.12, 279.96, -505.81)" xlink:href="#Degradado_sin_nombre_25"/><radialGradient id="Degradado_sin_nombre_25-8" cx="934.36" cy="1160.54" r="368.58" gradientTransform="matrix(-1.01, -0.87, 0.15, -0.12, 1886.95, 1398.01)" xlink:href="#Degradado_sin_nombre_25"/><radialGradient id="Degradado_sin_nombre_25-9" cx="1926.35" cy="954.95" r="368.58" gradientTransform="matrix(1.01, 0.87, -0.15, 0.12, -432.65, -826.27)" xlink:href="#Degradado_sin_nombre_25"/><radialGradient id="Degradado_sin_nombre_25-10" cx="1114.02" cy="955.99" r="368.58" gradientTransform="matrix(1.01, 0.87, -0.15, 0.12, -440.64, -819.6)" xlink:href="#Degradado_sin_nombre_25"/><radialGradient id="Degradado_sin_nombre_25-11" cx="1429.43" cy="1083.99" r="368.58" gradientTransform="matrix(-1.01, -0.87, 0.15, -0.12, 2220.86, 1976.58)" xlink:href="#Degradado_sin_nombre_25"/><radialGradient id="Degradado_sin_nombre_25-12" cx="1531.45" cy="1234.27" r="368.58" gradientTransform="matrix(-1.74, -1.49, 0.15, -0.12, 3248.12, 2708.58)" xlink:href="#Degradado_sin_nombre_25"/><radialGradient id="Degradado_sin_nombre_25-13" cx="1357.29" cy="984.16" r="368.58" gradientTransform="matrix(-1.74, -1.49, 0.15, -0.12, 3111.89, 2826.32)" xlink:href="#Degradado_sin_nombre_25"/><radialGradient id="Degradado_sin_nombre_25-14" cx="1543.14" cy="759.03" r="368.58" gradientTransform="matrix(-1.74, -1.49, 0.15, -0.12, 2986.11, 2934.89)" xlink:href="#Degradado_sin_nombre_25"/><radialGradient id="Degradado_sin_nombre_25-15" cx="1485.14" cy="532.34" r="368.58" gradientTransform="matrix(-1.74, -1.49, 0.15, -0.12, 2861.72, 3042.35)" xlink:href="#Degradado_sin_nombre_25"/><radialGradient id="Degradado_sin_nombre_25-16" cx="1420.07" cy="311.46" r="368.58" gradientTransform="matrix(-1.74, -1.49, 0.15, -0.12, 2740.59, 3147)" xlink:href="#Degradado_sin_nombre_25"/><radialGradient id="Degradado_sin_nombre_25-17" cx="1377.97" cy="99.75" r="368.58" gradientTransform="matrix(-1.74, -1.49, 0.15, -0.12, 2624.3, 3247.46)" xlink:href="#Degradado_sin_nombre_25"/><radialGradient id="Degradado_sin_nombre_25-18" cx="1222.43" cy="1475.22" r="368.58" gradientTransform="matrix(-1.74, -1.49, 0.15, -0.12, 3383.75, 2591.55)" xlink:href="#Degradado_sin_nombre_25"/><radialGradient id="Degradado_sin_nombre_25-19" cx="1571.82" cy="1845.11" r="368.58" gradientTransform="matrix(-1.74, -1.49, 0.15, -0.12, 3584.37, 2418.12)" xlink:href="#Degradado_sin_nombre_25"/><radialGradient id="Degradado_sin_nombre_25-20" cx="1256.37" cy="2099.94" r="368.58" gradientTransform="matrix(-1.74, -1.49, 0.15, -0.12, 3727.71, 2294.43)" xlink:href="#Degradado_sin_nombre_25"/><radialGradient id="Degradado_sin_nombre_25-21" cx="955.9" cy="1286.14" r="368.58" gradientTransform="matrix(-1.74, -1.49, 0.15, -0.12, 3282, 2679.53)" xlink:href="#Degradado_sin_nombre_25"/><radialGradient id="Degradado_sin_nombre_25-22" cx="1931.47" cy="847.37" r="368.58" gradientTransform="matrix(-1.01, -0.87, 0.15, -0.12, 2085.4, 2092.64)" xlink:href="#Degradado_sin_nombre_25"/><radialGradient id="Degradado_sin_nombre_25-23" cx="1139.04" cy="827.52" r="368.57" gradientTransform="matrix(-1, -0.87, 0.15, -0.12, 2072.11, 2101.88)" xlink:href="#Degradado_sin_nombre_25"/><radialGradient id="Degradado_sin_nombre_25-24" cx="1470.16" cy="1073.68" r="368.57" gradientTransform="matrix(1, 0.87, -0.15, 0.12, -834.32, -700.49)" xlink:href="#Degradado_sin_nombre_25"/><radialGradient id="Degradado_sin_nombre_25-25" cx="577.14" cy="1466.02" r="368.58" gradientTransform="matrix(-1.01, -0.87, 0.15, -0.12, 2293.93, 1073.14)" xlink:href="#Degradado_sin_nombre_25"/><radialGradient id="Degradado_sin_nombre_25-26" cx="1338.22" cy="799.53" r="368.57" gradientTransform="matrix(-1, -0.87, 0.15, -0.12, 1693.97, 2044.18)" xlink:href="#Degradado_sin_nombre_25"/><radialGradient id="Degradado_sin_nombre_25-27" cx="1695.28" cy="862.44" r="368.57" gradientTransform="matrix(-1, -0.87, 0.15, -0.12, 1725.69, 2017.23)" xlink:href="#Degradado_sin_nombre_25"/><radialGradient id="Degradado_sin_nombre_25-28" cx="1369.23" cy="662.73" r="368.57" gradientTransform="matrix(-1, -0.87, 0.15, -0.12, 1617.57, 2108.91)" xlink:href="#Degradado_sin_nombre_25"/><radialGradient id="Degradado_sin_nombre_25-29" cx="1169.81" cy="1000.68" r="368.57" gradientTransform="matrix(1, 0.87, -0.15, 0.12, -760.69, -245.12)" xlink:href="#Degradado_sin_nombre_25"/><radialGradient id="Degradado_sin_nombre_25-30" cx="1174.68" cy="1181.78" r="368.57" gradientTransform="matrix(1, 0.87, -0.15, 0.12, -861.41, -159.78)" xlink:href="#Degradado_sin_nombre_25"/><radialGradient id="Degradado_sin_nombre_2" cx="999.1" cy="539.96" r="1264.79" gradientTransform="translate(1.73 88.88) scale(0.96 0.85)" gradientUnits="userSpaceOnUse"><stop offset="0" stop-color="#f5f5f5"/><stop offset="0.09" stop-color="#ededed"/><stop offset="0.23" stop-color="#d5d6d7"/><stop offset="0.41" stop-color="#b0b2b4"/><stop offset="0.62" stop-color="#7c7f83"/><stop offset="0.85" stop-color="#3a3f45"/><stop offset="1" stop-color="#0a1118"/></radialGradient></defs><g class="cls-2"><g id="BACKGROUND"><g class="cls-3"><rect class="cls-4" x="-7.63" y="-1.36" width="1927.63" height="1092.6" transform="translate(2420.61 1865.46) rotate(180)"/><path class="cls-5" d="M1310.8,869.91c241.09,204.73,456.63,353.63,481.42,332.58L919.14,461.11C894.35,482.16,1069.7,665.19,1310.8,869.91Z" transform="translate(508.23 775.59)"/><path class="cls-6" d="M2010.9,470.26,1191.5-225.53c-5.89-5-12.86-1.09-8.32,4.68C1274.71-104.52,1600,283.75,2006,477.67,2012.64,480.84,2016.49,475,2010.9,470.26Z" transform="translate(508.23 775.59)"/><path class="cls-7" d="M2152.87,881.31,1333.48,185.52c-5.89-5-12.87-1.09-8.33,4.68C1416.69,306.52,1742,694.8,2148,888.72,2154.61,891.88,2158.46,886.05,2152.87,881.31Z" transform="translate(508.23 775.59)"/><path class="cls-8" d="M1614.54,430.11,795.15-265.69c-5.89-5-12.87-1.08-8.33,4.68,91.54,116.33,416.81,504.6,822.83,698.52C1616.28,440.68,1620.13,434.85,1614.54,430.11Z" transform="translate(508.23 775.59)"/><path class="cls-9" d="M846.83-33.41l819.4,695.79c5.89,5,12.86,1.09,8.33-4.68C1583,541.37,1257.75,153.1,851.73-40.82,845.1-44,841.25-38.15,846.83-33.41Z" transform="translate(508.23 775.59)"/><path class="cls-10" d="M1431.76,464.84l819.4,695.8c5.89,5,12.86,1.08,8.32-4.68-91.53-116.33-416.81-504.6-822.83-698.52C1430,454.27,1426.17,460.1,1431.76,464.84Z" transform="translate(508.23 775.59)"/><path class="cls-11" d="M1204,518.76l819.4,695.79c5.89,5,12.86,1.09,8.33-4.68-91.54-116.33-416.81-504.6-822.83-698.52C1202.25,508.18,1198.4,514,1204,518.76Z" transform="translate(508.23 775.59)"/><path class="cls-12" d="M383.52-174.56l819.39,695.79c5.89,5,12.87,1.09,8.33-4.68C1119.7,400.22,794.43,12,388.41-182,381.78-185.14,377.93-179.31,383.52-174.56Z" transform="translate(508.23 775.59)"/><path class="cls-13" d="M1510.34,780,691,84.17c-5.9-5-12.87-1.08-8.33,4.68,91.54,116.33,416.81,504.6,822.83,698.52C1512.08,790.54,1515.93,784.71,1510.34,780Z" transform="translate(508.23 775.59)"/><path class="cls-14" d="M973,628.94l819.39,695.8c5.89,5,12.87,1.08,8.33-4.68-91.54-116.33-416.81-504.6-822.83-698.52C971.21,618.37,967.36,624.2,973,628.94Z" transform="translate(508.23 775.59)"/><path class="cls-15" d="M147.64-70.63,967,625.16c5.89,5,12.86,1.09,8.32-4.68C883.83,504.15,558.55,115.88,152.53-78,145.9-81.21,142.05-75.38,147.64-70.63Z" transform="translate(508.23 775.59)"/><path class="cls-16" d="M1334.66,937.51l-819.4-695.8c-5.89-5-12.86-1.08-8.33,4.68C598.47,362.72,923.74,751,1329.76,944.92,1336.39,948.08,1340.24,942.25,1334.66,937.51Z" transform="translate(508.23 775.59)"/><path class="cls-17" d="M1446.33,852.56,35.65-345.32c-10.15-8.61-18-5.42-9.35,3.82,174,186.34,781.6,814.36,1416.51,1202.64C1453.18,867.48,1455.94,860.73,1446.33,852.56Z" transform="translate(508.23 775.59)"/><path class="cls-18" d="M1574.53,1260.59,163.85,62.71c-10.14-8.61-18-5.41-9.34,3.82C328.5,252.88,936.1,880.89,1571,1269.17,1581.38,1275.52,1584.15,1268.76,1574.53,1260.59Z" transform="translate(508.23 775.59)"/><path class="cls-19" d="M1091.17,1119.44-319.5-78.44c-10.15-8.61-18-5.42-9.35,3.82,174,186.34,781.6,814.36,1416.51,1202.64C1098,1134.36,1100.79,1127.61,1091.17,1119.44Z" transform="translate(508.23 775.59)"/><path class="cls-20" d="M1032.87,1341.08-377.8,143.2c-10.15-8.61-18-5.42-9.35,3.82,174,186.34,781.6,814.36,1416.51,1202.64C1039.73,1356,1042.49,1349.25,1032.87,1341.08Z" transform="translate(508.23 775.59)"/><path class="cls-21" d="M991,1569.75-419.65,371.87c-10.14-8.61-18-5.42-9.34,3.82C-255,562,352.6,1190.05,987.51,1578.33,997.88,1584.67,1000.65,1577.92,991,1569.75Z" transform="translate(508.23 775.59)"/><path class="cls-22" d="M915.49,1758.85-495.19,561c-10.14-8.61-18-5.42-9.34,3.82,174,186.34,781.59,814.35,1416.5,1202.64C922.34,1773.77,925.11,1767,915.49,1758.85Z" transform="translate(508.23 775.59)"/><path class="cls-23" d="M2156.07,1167,745.39-30.85c-10.14-8.61-18-5.41-9.34,3.82,174,186.35,781.6,814.36,1416.51,1202.64C2162.93,1182,2165.69,1175.2,2156.07,1167Z" transform="translate(508.23 775.59)"/><path class="cls-24" d="M1806,427.33,395.32-770.55c-10.14-8.61-18-5.42-9.34,3.82C560-580.39,1167.57,47.63,1802.48,435.91,1812.85,442.25,1815.61,435.5,1806,427.33Z" transform="translate(508.23 775.59)"/><path class="cls-25" d="M2536.75,743,1126.07-454.85c-10.14-8.61-18-5.41-9.34,3.82,174,186.35,781.6,814.36,1416.51,1202.65C2543.61,758,2546.37,751.2,2536.75,743Z" transform="translate(508.23 775.59)"/><path class="cls-26" d="M2488.68,1675.63,1078,477.75c-10.14-8.61-18-5.42-9.34,3.82,174,186.34,781.59,814.36,1416.5,1202.64C2495.53,1690.55,2498.3,1683.8,2488.68,1675.63Z" transform="translate(508.23 775.59)"/><path class="cls-27" d="M658.38,646.29-161-49.51c-5.89-5-12.87-1.08-8.33,4.68C-77.8,71.5,247.47,459.77,653.49,653.69,660.12,656.86,664,651,658.38,646.29Z" transform="translate(508.23 775.59)"/><path class="cls-28" d="M1444.52,1343.87l-814.46-700c-5.85-5-12.85-1.15-8.36,4.64,90.71,116.79,413.23,506.72,817.87,702.71C1446.18,1354.45,1450.07,1348.64,1444.52,1343.87Z" transform="translate(508.23 775.59)"/><path class="cls-29" d="M86.9,377.43l814.45,700c5.86,5,12.86,1.15,8.36-4.63C819,956,496.48,566,91.84,370.05,85.24,366.85,81.34,372.66,86.9,377.43Z" transform="translate(508.23 775.59)"/><path class="cls-30" d="M2322.86,727.92,1503.47,32.12c-5.89-5-12.86-1.08-8.33,4.68C1586.68,153.13,1912,541.4,2318,735.32,2324.6,738.49,2328.45,732.66,2322.86,727.92Z" transform="translate(508.23 775.59)"/><path class="cls-31" d="M863,1115.39l-814.45-700c-5.86-5-12.86-1.15-8.36,4.64C130.87,536.85,453.39,926.78,858,1122.77,864.64,1126,868.53,1120.16,863,1115.39Z" transform="translate(508.23 775.59)"/><path class="cls-32" d="M547.27,768.38l-814.45-700c-5.86-5-12.86-1.15-8.36,4.63,90.71,116.8,413.23,506.72,817.87,702.71C548.94,779,552.83,773.15,547.27,768.38Z" transform="translate(508.23 775.59)"/><path class="cls-33" d="M734.77,1169.82l-814.46-700c-5.85-5-12.85-1.15-8.35,4.64C2.67,591.28,325.18,981.21,729.82,1177.2,736.43,1180.4,740.32,1174.59,734.77,1169.82Z" transform="translate(508.23 775.59)"/><path class="cls-34" d="M-128.67,561.1l814.46,700c5.85,5,12.85,1.15,8.35-4.63-90.71-116.8-413.22-506.72-817.86-702.71C-130.33,550.52-134.22,556.33-128.67,561.1Z" transform="translate(508.23 775.59)"/><path class="cls-35" d="M-252.07,673l814.46,700c5.86,5,12.86,1.15,8.36-4.63C480,1251.51,157.52,861.59-247.12,665.6-253.73,662.4-257.62,668.21-252.07,673Z" transform="translate(508.23 775.59)"/><rect class="cls-36" x="-30.41" y="-0.34" width="1973.19" height="1091.58" transform="translate(2420.61 1866.48) rotate(180)"/></g></g></g></svg>