<svg xmlns="http://www.w3.org/2000/svg" xmlns:xlink="http://www.w3.org/1999/xlink" viewBox="0 0 1922 1080"><defs><style>.cls-1{fill:url(#linear-gradient);}.cls-2{opacity:0.15;}.cls-3{fill:#fff;}.cls-4{fill:#dcdcdc;}</style><linearGradient id="linear-gradient" x1="1919.72" y1="207.23" x2="40.57" y2="858.8" gradientUnits="userSpaceOnUse"><stop offset="0.04" stop-color="#1a1a1a"/><stop offset="0.5" stop-color="gray"/><stop offset="0.96" stop-color="#1a1a1a"/></linearGradient></defs><g id="BACKGROUND"><rect class="cls-1" width="1920" height="1080"/></g><g id="OBJECK"><g class="cls-2"><rect class="cls-3" width="1922" height="1080"/><path class="cls-4" d="M1922,614V1065a201.53,201.53,0,0,1-33.91,15H1698.78c-20.25-4-40.43-8.45-60.52-12.58-63.75-13.08-131.78-22.87-193.83-5-16.89,4.86-33.78,11.76-50.71,17.59h-97.66c-23-13.78-37.41-38.44-40.67-62.86-4.19-31.34,6.31-62.6,17.07-92.74s22-61,19.54-92.51c-3.56-44.29-36.72-86-83.61-105.26-31.51-12.91-72.44-19.47-85.79-47-13.22-27.29,12.65-59,45.1-69.06,11.62-3.59,28-3.54,45.75-1.73,39.54,4,79.1-8.22,105.28-33.77.94-.92,1.88-1.84,2.79-2.77,17-17.26,37.72-39.33,63.42-33.94,23.2,4.87,31.84,30.16,27.51,50.19-5.06,23.4-22.38,44.64-46.33,56.77-18.41,9.35-41.81,14.63-52.06,30.7-10.38,16.28-2,37.34,12.71,51s34.74,22.12,52.86,32.41,35.59,23.93,40.33,42.05c10.44,39.84-43.37,70.88-52.22,111-4.26,19.29,3,40.22,18.94,54.43s40.07,21.35,62.85,18.56c32.74-4,59.22-26.49,92-30.59,43.55-5.44,81.85,22.24,120.32,40.62,40.23,19.2,86.37,29.23,132.4,28.76,21.93-.22,45.12-3.26,61.93-15.26,20.55-14.7,26.84-39.25,29.19-62.07A296.88,296.88,0,0,0,1868.74,815c-9.83-27-23.59-53.06-31.24-80.61s-8.68-57.74,6.27-83C1858.24,627,1890.67,609.15,1922,614Z"/><path class="cls-4" d="M957,663.46c-16.2,33.26-55.82,58.72-100.4,64.55s-92.5-8.23-121.43-35.6c-28.25-26.71-38.22-63.55-68.43-88.88-47.18-39.57-127.22-38.66-194.19-26S338.3,612,270.2,603.86c-23.38-2.79-48.45-10.75-58-27.78-7.58-13.43-3.37-29.53,6.23-42.14s24-22.44,38-32.15c29.23-20.21,58.54-41.27,78-67.82S362,374,346.89,345.78C328,310.5,275,283.71,282.53,245.88c6.72-33.95,60.3-52.39,67.94-86.22,7.89-34.94-39-68.14-27.51-102.44,9.41-28,29.34-45.93,53.45-57.22H569.55c46.34,19.73,86.35,54.71,102.6,91.18,22.85,51.3-8.66,117.1-74,134.46-16.27,4.32-34.46,5.57-50.49.72s-29.24-16.7-30-30.24c-1.09-19.27,20.76-33.7,33.81-50,21.84-27.31,16-68.21-17.67-86.59s-89.93-3.45-96.66,28.41c-4.95,23.37,14.8,46.56,10.78,70-7.27,42.39-86.31,64.71-80.47,107.24,3.8,27.45,41.2,42.5,73.13,53.87s68.14,30.26,65.56,57.8c-2.37,25.49-36.33,40.23-64.55,52.81s-58.42,35.46-47.46,59.52c7.44,16.32,31.76,24.32,53.76,24.05s43-6.76,64.48-10.54C567.28,493,627,501.69,674,526.15,704.37,542,730.85,564.53,766.35,571c51.53,9.36,109.36-17.89,156.38,1.15C962,588,972.79,631,957,663.46Z"/><path class="cls-4" d="M1304,231.07c-16.11,49.69-2.22,102,1.75,153.25s-5.73,108.63-55.46,141.62c-35.21,23.35-83.75,29.67-129.83,30.45-44.29.75-95.61-6-118-36.26-14.17-19.11-12.73-42.78-9-64.66,14.66-86.33,58-169.49,58.67-256.64.16-18.86-1.87-38.25-12.14-55.33a72,72,0,0,0-53.94-33.78c-34.37-3.23-64.83,19.6-77.71,44.87-16.74,32.83-12.66,70-3.62,104.71s22.8,69,24.74,104.42-10.06,73.46-44.11,96.47c-39.06,26.4-97.72,26.69-146.78,14-76.33-19.7-142.7-73.34-145.9-136.56-1.33-26.31,14.48-57.47,47.47-61.43,20-2.4,40.6,6.38,52.41,19.4,36.11,39.8,2.5,112.16,63.07,102.22,35.93-5.9,10.69-41,6.29-56.55-4.83-17,4.36-34.57,16.59-49s27.64-27.29,37.73-42.74c21.64-33.19,15.62-72.89,10.92-110.1s-6.32-78,21.71-108.09C862.15,17.08,880.54,7.06,901.15,0h170.94c30.4,17.16,44.23,47.36,51.89,76.26,17.51,66.13,11.78,135.92-16.4,199.57-11.2,25.29-26,50-30.15,76.57s4.64,56.61,32.17,72.45c34.91,20.09,87.69,8.76,115.37-17.22s34.92-62,34-96c-1.11-42.5-13.13-84.36-18.91-126.64s-4.84-86.68,18.37-125c10-16.48,24.6-31.89,45-40.47s47.38-9,65.78,2.15c28.84,17.56,24.85,52.87,11.6,79.54C1358.77,145.8,1319.09,184.66,1304,231.07Z"/><path class="cls-4" d="M620.19,749.55C613.76,789.89,567,824,515.48,825.38c-40.89,1.11-78.7-15.83-118.52-23.28-111.21-20.82-236.15,32.35-338.62-7.57A166.28,166.28,0,0,1,0,756.35V533.08q4.65-6.55,9.66-12.88c23.42-29.65,53.2-58.15,59.34-92.73,5.77-32.48-10.49-64.79-29.24-94.05C27.1,313.65,13.14,294.37,0,274.8V51a128.79,128.79,0,0,1,73.8-22.1C132,30,180.56,75.43,178.28,121.33c-1.19,24-14.67,46.53-35.36,64.15-43.74,37.25-50.14,93.11-14.07,135.16l.89,1c23.57,27.07,56.61,51.06,64.48,83.31,10.6,43.43-27.88,83.9-64.26,117.57s-75.45,73.5-66.27,117.13c7.77,37,50.74,65,97.09,73.33s95.06.39,139.79-12.33,87.21-30.11,132.52-41.49c35.77-9,75-14.05,110.58-4.71C592.61,667.31,626.64,709.2,620.19,749.55Z"/><path class="cls-4" d="M1042.33,1044c-39.71,18-82.61,29.33-126.95,36H622.85c-67.19-4.69-134.35-8.83-201.47-4.61-17.43,1.1-34.78,2.75-52.11,4.61H114.48c-46.95-13.31-89.94-39.78-111.28-77.11-1.15-2-2.21-4-3.2-6.09V914.27a97.27,97.27,0,0,1,22.56-30c43-38.75,93.76-28.71,108,5.05,14.44,34.32-23.86,58.42,8.64,90,19.54,19,48.82,21.52,74.86,19.53,35.51-2.72,63.59-26.08,84.27-50.36S336.36,897,365,879.23s73.66-22.18,97.3.14c29.23,27.6,7.28,73.3,26.88,106.33,19.25,32.42,71,40.53,113.8,34.94C699.78,1008,786.67,947,884,956.46c38.82,3.76,76.06,18.79,115.08,16.9,35.11-1.69,68.78-18.06,87.89-42.76,12.35-16,16.34-40.94-2.9-51.09-12.77-6.71-29.88-3.23-42.73,3.38s-23.49,16-36.71,22.06c-54,24.73-119.48-15.08-180.79-9.93-57.86,4.86-99.84,48.09-154,65.82-32.24,10.56-76.14,8.32-92.61-17.11-17.16-26.52,6.75-59,35-77.78C654.82,837.62,710,822.78,764.34,825c40.09,1.64,78.92,12.16,118.8,16s84-.24,113.28-23.16c25.71-20.11,37.24-52.49,68.28-66.38,26.83-12,61.84-5.59,84.78,11.11s35.09,41.82,39.64,67C1204.75,916.32,1134.6,1002.14,1042.33,1044Z"/><path class="cls-4" d="M1922,58.65V510.44c-35.54,7.72-69.27-20.68-59-51.61,15.6-46.93.08-101.87-43.37-134.52-18.93-14.22-41.71-24.23-61.6-37.45s-37.67-31.17-40-52.51c-3.7-33.92,32.1-64.44,27.75-98.32-2.54-19.72-19.11-36.9-39.83-46.16s-45-11.37-68.35-9.6c-52.11,4-101.75,27.31-133.26,62.68s-44.42,82.21-34.63,125.74c12.53,55.69,58.37,100.95,98.83,146.09s78.67,98,71.8,154.35c-3.66,30-19.82,57.62-36.11,84.37s-33.24,54-38.67,83.7,2.81,63.11,29.88,82.61,74.7,18.18,93.57-7.32c17.76-24,4.57-55.44-11.07-80.48s-35.84-53.08-25.47-80c15.39-40,81.54-48.91,73.85-136.12-12.9-146.38-140.57-122.35-141.22-190.37-.23-24.34,33.29-39.29,62-38.47,28.52.81,55.07,13,74.94,30.32,74.76,65.24,95.4,220.17,5.39,358-15.49,23.71,3,54,19.3,77.37s37.26,44.43,50,69.28,15.78,55.79-3.37,77.52c-15.11,17.16-41.34,25.22-66.61,25.91s-50.09-5-74.49-10.68c-32.84-7.62-66.51-15.56-94-32.63-35.93-22.36-56.94-57.55-76.66-91.43-13.46-23.1-27-46.52-33.3-71.73s-4.51-52.84,11.27-74.88c12.92-18,33.9-30.77,49.69-47.08,29.54-30.51,39.2-72.65,32.06-111.64s-29.8-75-58.53-106c-29.07-31.41-65.47-59.77-80.14-97.68-13-33.63-6.92-70.71,6.8-104.14,26.12-63.63,79.89-118.69,148.35-153A374.68,374.68,0,0,1,1620.32,0h227.75c20.34,7.3,38.86,17.5,53.39,31.56A112,112,0,0,1,1922,58.65Z"/></g></g></svg>