<?xml version="1.0" encoding="utf-8"?>
<!-- Generator: Adobe Illustrator 24.3.0, SVG Export Plug-In . SVG Version: 6.00 Build 0)  -->
<svg version="1.1" xmlns="http://www.w3.org/2000/svg" xmlns:xlink="http://www.w3.org/1999/xlink" x="0px" y="0px"
	 viewBox="0 0 3710 3710" style="enable-background:new 0 0 3710 3710;" xml:space="preserve">
<style type="text/css">
	.st0{opacity:0.3;fill:url(#SVGID_1_);}
	.st1{fill:url(#SVGID_2_);}
	.st2{opacity:0.26;fill:url(#SVGID_3_);}
	.st3{opacity:0.68;}
	.st4{fill:#FFFFFF;}
	.st5{fill:url(#SVGID_4_);}
	.st6{fill:url(#SVGID_5_);}
	.st7{opacity:0.73;fill:#FFFFFF;}
	.st8{fill:url(#SVGID_6_);}
	.st9{opacity:0.64;fill:#FFFFFF;}
	.st10{fill:url(#SVGID_7_);}
	.st11{fill:url(#SVGID_8_);}
	.st12{fill:url(#SVGID_9_);}
	.st13{opacity:0.64;}
	.st14{fill:url(#SVGID_10_);}
	.st15{fill:url(#SVGID_11_);}
	.st16{fill:url(#SVGID_12_);}
	.st17{fill:url(#SVGID_13_);}
	.st18{fill:url(#SVGID_14_);}
	.st19{fill:url(#SVGID_15_);}
	.st20{fill:url(#SVGID_16_);}
	.st21{fill:url(#SVGID_17_);}
	.st22{fill:url(#SVGID_18_);}
	.st23{fill:url(#SVGID_19_);}
	.st24{fill:url(#SVGID_20_);}
	.st25{fill:url(#SVGID_21_);}
	.st26{fill:url(#SVGID_22_);}
	.st27{fill:url(#SVGID_23_);}
	.st28{fill:url(#SVGID_24_);}
	.st29{fill:url(#SVGID_25_);}
	.st30{fill:url(#SVGID_26_);}
	.st31{fill:#E78456;}
	.st32{fill:url(#SVGID_27_);}
	.st33{fill:url(#SVGID_28_);}
	.st34{fill:url(#SVGID_29_);}
	.st35{fill:url(#SVGID_30_);}
</style>
<g id="Background">
</g>
<g id="Illustration">
	<g>
		<linearGradient id="SVGID_1_" gradientUnits="userSpaceOnUse" x1="3389.2336" y1="3187.5359" x2="1384.2034" y2="1433.1356">
			<stop  offset="0" style="stop-color:#B37CFF"/>
			<stop  offset="1" style="stop-color:#F895E7"/>
		</linearGradient>
		<path class="st0" d="M3048.48,2276.4c-259.13,610.15-949.4,951.96-1547.99,859.76c-97.4-15-364.44-59.7-600.86-270.54
			C444.5,2459.73,347.16,1656.03,714.3,1089.64c267.21-412.23,746.22-645.91,1201.37-634.22c98.04,2.52,473.77,18.04,803.97,290.31
			c48.5,39.99,155.47,135.02,251.88,285.79C3197.9,1385.53,3217.36,1878.76,3048.48,2276.4z"/>
		<g>
			<linearGradient id="SVGID_2_" gradientUnits="userSpaceOnUse" x1="1712.2086" y1="1772.6587" x2="1234.7959" y2="682.4465">
				<stop  offset="0" style="stop-color:#A737D5"/>
				<stop  offset="1" style="stop-color:#EF497A"/>
			</linearGradient>
			<path class="st1" d="M2928.08,1932.45c-26.24,597.8-570.61,1059.45-1215.88,1031.12c-645.27-28.33-1147.08-535.9-1120.84-1133.7
				S1161.97,770.42,1807.24,798.75C2452.51,827.08,2954.32,1334.65,2928.08,1932.45z"/>
			<linearGradient id="SVGID_3_" gradientUnits="userSpaceOnUse" x1="778.7461" y1="1802.9901" x2="2614.1084" y2="1802.9901">
				<stop  offset="0" style="stop-color:#B37CFF"/>
				<stop  offset="1" style="stop-color:#F895E7"/>
			</linearGradient>
			<ellipse class="st2" cx="1696.43" cy="1802.99" rx="917.68" ry="866.92"/>
			<g class="st3">
				<path class="st4" d="M2058.49,1886.39c-0.28,191.09-13.39,382.57-47.06,570.96c-8.53,47.06-18.41,93.89-30.19,140.28
					c-11.81,46.37-25.45,92.34-42.15,137.28c-16.84,44.83-36.38,89.01-62.88,129.38c-13.35,20.04-28.5,39.25-47.19,55.04
					c-9.34,7.85-19.6,14.81-30.89,19.91c-11.26,5.07-23.57,8.27-36.07,8.5c-12.48,0.36-24.97-2.08-36.46-6.7
					c-11.53-4.58-22.04-11.23-31.61-18.82c-19.14-15.31-34.62-34.3-48.21-54.18c-26.97-40.09-46.78-84.18-63.79-128.94
					c-16.91-44.87-30.68-90.8-42.6-137.14c-11.89-46.36-21.88-93.17-30.47-140.21c-17.16-94.1-28.86-189.11-36.75-284.39
					c-7.84-95.29-11.77-190.88-12.25-286.48c-0.24-47.8,1.07-95.59,2.77-143.34c1.79-47.76,4.42-95.49,7.94-143.15
					c7.07-95.31,17.63-190.42,33.33-284.74c7.88-47.15,17.06-94.1,28.11-140.63c11.07-46.52,23.95-92.67,39.91-137.82
					c8.02-22.55,16.8-44.87,26.8-66.65c9.99-21.78,21.17-43.09,34.31-63.24c13.17-20.06,28.31-39.2,47.16-54.53
					c9.42-7.6,19.81-14.2,31.18-18.68c11.33-4.54,23.62-6.83,35.85-6.37c12.24,0.35,24.3,3.4,35.43,8.3
					c11.15,4.93,21.39,11.62,30.79,19.22c18.81,15.28,34.37,33.97,48.18,53.59c27.45,39.51,48.15,83.09,66.07,127.43
					c17.8,44.46,32.49,90.07,45.29,136.15c12.75,46.1,23.55,92.72,32.9,139.61C2042.91,1503.76,2057.93,1695.27,2058.49,1886.39z
					 M2044.34,1886.39c0.18-95.22-3.44-190.46-11.36-285.34c-7.8-94.88-19.62-189.49-37.23-283.05
					c-8.79-46.77-19.03-93.28-31.22-139.28c-12.23-45.97-26.34-91.47-43.52-135.8c-17.31-44.2-37.38-87.62-64.01-126.86
					c-13.39-19.48-28.49-37.98-46.61-53.03c-9.06-7.48-18.89-14.05-29.53-18.89c-10.63-4.78-22.08-7.92-33.72-8.22
					c-11.64-0.37-23.26,1.97-34.02,6.4c-10.8,4.39-20.72,10.84-29.76,18.29c-18.09,15.03-32.74,33.93-45.48,53.81
					c-12.71,19.96-23.54,41.14-33.19,62.81c-9.67,21.68-18.13,43.9-25.85,66.37c-15.36,44.99-27.66,91.02-38.17,137.42
					c-10.48,46.42-19.12,93.26-26.45,140.29c-14.61,94.1-24.09,188.96-30.1,284c-6.07,95.05-8.16,190.32-7.99,285.55
					c-0.25,95.21,2.93,190.45,10.01,285.4c7.13,94.94,18.06,189.64,34.41,283.41c8.19,46.87,17.76,93.51,29.23,139.66
					c11.48,46.14,24.81,91.84,41.21,136.4c16.49,44.44,35.78,88.16,61.84,127.54c13.12,19.52,28.04,38.04,46.13,52.72
					c9.04,7.28,18.88,13.59,29.51,17.9c10.6,4.33,21.98,6.73,33.37,6.35c11.39-0.29,22.62-3.3,33.04-8.08
					c10.44-4.81,20.06-11.43,28.91-18.98c17.7-15.19,32.3-33.94,45.19-53.63c25.61-39.69,44.61-83.51,60.92-128.02
					c16.18-44.64,29.36-90.38,40.73-136.55c11.34-46.19,20.79-92.84,28.9-139.73c16.24-93.79,27.03-188.5,34.2-283.43
					C2041.02,2076.88,2044.38,1981.63,2044.34,1886.39z"/>
				<path class="st4" d="M2540.55,1886.39c-0.66,123.06-16.48,246.17-49.42,364.84c-33.52,118.4-84.04,232.3-152.64,334.56
					c-34.3,51.07-73.16,99.15-116.59,142.77c-43.4,43.61-91.41,82.74-143.51,115.53c-52.15,32.67-108.48,58.82-167.45,76.56
					c-58.93,17.79-120.45,27.06-182.03,27.12c-61.58-0.01-123.11-9.23-182.08-26.96c-59-17.69-115.37-43.8-167.58-76.44
					c-52.16-32.76-100.23-71.86-143.71-115.45c-43.49-43.6-82.43-91.66-116.81-142.74c-68.73-102.27-119.37-216.23-153.04-334.68
					c-16.58-59.34-28.89-119.85-37.05-180.89c-8.12-61.06-12.2-122.63-12.47-184.22c0.32-61.6,4.43-123.16,12.59-184.21
					c8.2-61.04,20.56-121.53,37.18-180.84c33.76-118.41,84.47-232.28,153.25-334.45c34.39-51.03,73.34-99.04,116.83-142.58
					c43.47-43.52,91.51-82.58,143.67-115.24c52.19-32.55,108.55-58.47,167.45-76.16c58.86-17.76,120.3-27.02,181.79-27.08
					c61.49,0.11,122.92,9.43,181.75,27.23c58.86,17.73,115.18,43.7,167.32,76.29c52.09,32.69,100.07,71.79,143.47,115.33
					c43.42,43.56,82.28,91.58,116.6,142.61c68.64,102.15,119.25,215.98,152.85,334.33
					C2523.91,1640.24,2539.81,1763.33,2540.55,1886.39z M2524.34,1886.39c-0.18-121.66-15.33-243.45-47.43-360.89
					c-32.28-117.26-80.88-230.46-147.79-332.27c-33.44-50.85-71.41-98.78-113.95-142.35c-42.55-43.5-89.55-82.86-140.95-115.57
					c-51.47-32.53-107.04-58.71-165.32-76.42c-58.25-17.72-119.06-27.04-179.98-27.24c-60.92,0.25-121.72,9.62-179.94,27.39
					c-58.24,17.76-113.77,43.99-165.18,76.55c-51.35,32.75-98.28,72.14-140.76,115.66c-42.46,43.59-80.36,91.53-113.72,142.38
					c-66.77,101.79-115.27,214.95-147.39,332.15c-16,58.67-27.59,118.49-35.44,178.76c-7.87,60.27-11.75,121.06-11.89,181.86
					c0.17,60.8,4.1,121.58,12,181.84c7.89,60.26,19.52,120.06,35.56,178.7c32.2,117.15,80.78,230.23,147.6,331.92
					c33.37,50.8,71.28,98.69,113.74,142.22c42.48,43.45,89.38,82.81,140.71,115.45c51.39,32.48,106.91,58.52,165.05,76.27
					c58.11,17.79,118.81,27.2,179.65,27.51c60.84-0.25,121.56-9.61,179.7-27.35c58.17-17.7,113.73-43.7,165.18-76.15
					c51.39-32.61,98.36-71.93,140.91-115.37c42.53-43.51,80.51-91.39,113.96-142.19c66.95-101.7,115.64-214.83,148-332.04
					C2508.84,2129.82,2524.08,2008.05,2524.34,1886.39z"/>
				<path class="st4" d="M781.8,1466.4l243.74-1.97l243.74-1.12l487.49-0.9l487.49,0.99l243.74,1.22l243.74,2.13
					c0.4,0,0.71,0.33,0.71,0.72c0,0.39-0.32,0.71-0.71,0.71l-243.74,2.13l-243.74,1.22l-487.49,0.99l-487.49-0.9l-243.74-1.12
					l-243.74-1.97c-0.59-0.01-1.06-0.49-1.06-1.07C780.75,1466.87,781.22,1466.4,781.8,1466.4z"/>
				<path class="st4" d="M1064.57,1058.15c57.68-0.91,115.37-1.31,173.05-1.97l173.05-1.12c57.68-0.48,115.37-0.42,173.05-0.57
					l173.05-0.33l346.1,0.99l173.05,1.22c57.68,0.72,115.37,1.15,173.05,2.13c0.4,0.01,0.71,0.33,0.7,0.73
					c-0.01,0.39-0.32,0.7-0.7,0.7c-57.68,0.98-115.37,1.4-173.05,2.13l-173.05,1.22l-346.1,0.99l-173.05-0.33
					c-57.68-0.15-115.37-0.1-173.05-0.57l-173.05-1.12c-57.68-0.66-115.37-1.06-173.05-1.97c-0.59-0.01-1.06-0.49-1.05-1.08
					C1063.53,1058.62,1064,1058.16,1064.57,1058.15z"/>
				<path class="st4" d="M697.1,1874.65l264.92-1.96l264.92-1.12l529.84-0.9l529.84,0.99l264.92,1.22l264.92,2.12
					c0.4,0,0.71,0.33,0.71,0.72c0,0.39-0.32,0.71-0.71,0.71l-264.92,2.12l-264.92,1.22l-529.84,0.99l-529.84-0.9l-264.92-1.12
					l-264.92-1.96c-0.59,0-1.06-0.49-1.06-1.07C696.04,1875.12,696.51,1874.65,697.1,1874.65z"/>
				<path class="st4" d="M781.8,2282.9l243.74-1.97l243.74-1.12l487.49-0.9l487.49,0.99l243.74,1.22l243.74,2.13
					c0.4,0,0.71,0.33,0.71,0.72c0,0.39-0.32,0.71-0.71,0.71l-243.74,2.13l-243.74,1.22l-487.49,0.99l-487.49-0.9l-243.74-1.12
					l-243.74-1.97c-0.59,0-1.06-0.49-1.06-1.07C780.75,2283.38,781.22,2282.91,781.8,2282.9z"/>
				<path class="st4" d="M2483.86,2695.96H1099.45c-2.07,0-3.74-1.67-3.74-3.74c0-2.06,1.67-3.74,3.74-3.74h1384.41
					c2.07,0,3.74,1.67,3.74,3.74C2487.6,2694.28,2485.93,2695.96,2483.86,2695.96z"/>
			</g>
		</g>
		<g>
			<linearGradient id="SVGID_4_" gradientUnits="userSpaceOnUse" x1="2392.7974" y1="429.3486" x2="1622.7607" y2="1948.4944">
				<stop  offset="0" style="stop-color:#FDF53F"/>
				<stop  offset="0.6645" style="stop-color:#E57A58"/>
				<stop  offset="1" style="stop-color:#D93C65"/>
			</linearGradient>
			<path class="st5" d="M2308.7,1006.77h-253.05c-19.35,0-35.04-15.69-35.04-35.04V718c0-18.26,14.02-33.45,32.21-34.93
				l269.61-21.82c21.24-1.72,39.08,15.76,37.8,37.03l-16.56,275.55C2342.57,992.33,2327.24,1006.77,2308.7,1006.77z"/>
			<path class="st4" d="M2091.73,957.38c-6.8,0-13.42-2.61-18.39-7.29c-5.35-5.04-8.43-12.15-8.43-19.51V767.91
				c0-4.59,3.72-8.31,8.31-8.31c4.59,0,8.31,3.72,8.31,8.31v162.67c0,2.84,1.14,5.47,3.2,7.41c2.06,1.94,4.76,2.9,7.58,2.75
				l192.78-11.48c5.37-0.32,9.58-4.79,9.58-10.17V759.39c0-2.91-1.19-5.59-3.35-7.55c-2.16-1.96-4.95-2.89-7.84-2.59l-160.36,15.88
				c-5.3,0.52-7.56,4.34-8.29,5.96c-0.73,1.62-2.08,5.85,1.04,10.15l61.16,84.41c1.92,2.65,4.9,4.18,8.17,4.21c0.03,0,0.06,0,0.09,0
				c3.23,0,6.2-1.48,8.14-4.07l67.37-89.76c2.75-3.66,7.96-4.42,11.63-1.66c3.67,2.75,4.41,7.96,1.66,11.63l-67.37,89.76
				c-5.17,6.88-12.9,10.9-21.66,10.71c-8.6-0.07-16.43-4.11-21.48-11.07L2102.43,791c-5.7-7.87-6.73-17.85-2.75-26.72
				c3.98-8.86,12.14-14.73,21.8-15.68l160.36-15.88c7.53-0.73,15.04,1.74,20.64,6.81c5.6,5.07,8.81,12.31,8.81,19.86V919.1
				c0,14.16-11.07,25.91-25.21,26.75l-192.77,11.48C2092.78,957.36,2092.25,957.38,2091.73,957.38z"/>
		</g>
		<g>
			<linearGradient id="SVGID_5_" gradientUnits="userSpaceOnUse" x1="1962.7407" y1="787.2461" x2="1291.8989" y2="1776.9028">
				<stop  offset="0" style="stop-color:#FDF53F"/>
				<stop  offset="0.6645" style="stop-color:#E57A58"/>
				<stop  offset="1" style="stop-color:#D93C65"/>
			</linearGradient>
			<path class="st6" d="M1945.61,977.11v219.28c0,26.05-20.47,47.51-46.5,48.73L1624.91,1258c-27.81,1.31-51.08-20.89-51.08-48.73
				V977.11c0-26.94,21.84-48.79,48.79-48.79h274.21C1923.77,928.33,1945.61,950.17,1945.61,977.11z"/>
			<path class="st7" d="M1620.27,1094.42c-9.26-54.33,10.38-84.52,28.5-100.29c34.09-29.67,94.88-36.53,154.9-17.49
				c58.81,18.67,100.27,72.73,92.42,120.5c-3.11,18.94-19.21,60.36-99.84,66.93c16.91,8.12,39.86,18.15,60.92,24.05l0.01,0
				c3.93,1.11,6.41,4.85,5.9,8.91c-0.52,4.03-3.84,7.01-7.89,7.09c-2.37,0.05-5.37,0.09-8.91,0.09
				C1796.12,1204.22,1637.6,1196.07,1620.27,1094.42z M1853.2,1202.21L1853.2,1202.21L1853.2,1202.21z M1854.87,1189.49
				c0,0,0.01,0,0.02,0C1854.88,1189.49,1854.87,1189.49,1854.87,1189.49z M1767.63,1150.28c66.49,1.39,108.04-19.02,114.03-55.5
				c6.6-40.19-31.14-87.9-82.41-104.18c-45.28-14.36-106.38-15.44-140.87,14.58c-22.23,19.34-30.2,48.55-23.68,86.79
				c12.84,75.34,118.16,92.92,180.41,96.68c-27.35-11.44-49.83-23.91-51.18-24.66l-25.55-14.24L1767.63,1150.28z"/>
		</g>
		<g>
			<linearGradient id="SVGID_6_" gradientUnits="userSpaceOnUse" x1="1700.2948" y1="1204.4646" x2="318.9283" y2="2116.6887">
				<stop  offset="0" style="stop-color:#FDF53F"/>
				<stop  offset="1" style="stop-color:#D93C65"/>
			</linearGradient>
			<path class="st8" d="M508.22,1368.71l1199.07-5.24c11.47-0.1,20.8,9.2,20.73,20.67l-2.56,419.71
				c-0.07,11.54-9.6,20.77-21.14,20.43c-105.73-3.15-1189.44-17.06-1210.16-16.19c-20.48,0.86-9.35-330.59-6.3-419.53
				C488.24,1377.54,497.21,1368.81,508.22,1368.71z"/>
			<path class="st4" d="M1704.94,1808.03l-0.14,0c-67.57-2.02-715.16-10.1-1026.37-13.98c-91-1.14-155.59-1.94-172.81-2.18
				l-1.61-0.02l-0.28-1.58c-7.36-41.49-7.23-180.21,0.37-401.16c0.08-2.3,1.95-4.13,4.27-4.15l1199.08-5.24
				c1.18,0,2.27,0.45,3.09,1.27c0.82,0.82,1.26,1.88,1.25,3.06l-2.56,419.71C1709.2,1806.11,1707.29,1808.03,1704.94,1808.03z
				 M507.29,1788c19.37,0.27,82.83,1.06,171.19,2.16c311.22,3.88,958.83,11.97,1026.44,13.98l0.11,0.01c0.12,0,0.29-0.19,0.3-0.42
				l2.56-419.71l-0.44-2.36l0.01,1.94l-1199.07,5.24c-0.22,0-0.4,0.17-0.41,0.4C500.49,1607.16,500.26,1744.9,507.29,1788z"/>
			<path class="st9" d="M559.52,1477.1L559.52,1477.1c0,11.35,3.79,20.55,8.46,20.55h459.3c4.67,0,8.46-9.2,8.46-20.55l0,0
				c0-11.35-3.79-20.55-8.46-20.55h-459.3C563.31,1456.55,559.52,1465.75,559.52,1477.1z"/>
			<path class="st9" d="M559.52,1547.15L559.52,1547.15c0,11.35,3.79,20.55,8.46,20.55h459.3c4.67,0,8.46-9.2,8.46-20.55l0,0
				c0-11.35-3.79-20.55-8.46-20.55h-459.3C563.31,1526.6,559.52,1535.8,559.52,1547.15z"/>
			<path class="st9" d="M559.52,1617.21L559.52,1617.21c0,11.35,3.79,20.55,8.46,20.55h459.3c4.67,0,8.46-9.2,8.46-20.55l0,0
				c0-11.35-3.79-20.55-8.46-20.55h-459.3C563.31,1596.66,559.52,1605.86,559.52,1617.21z"/>
			<path class="st9" d="M559.52,1687.27L559.52,1687.27c0,11.35,3.79,20.55,8.46,20.55h459.3c4.67,0,8.46-9.2,8.46-20.55l0,0
				c0-11.35-3.79-20.55-8.46-20.55h-459.3C563.31,1666.72,559.52,1675.92,559.52,1687.27z"/>
			<g>
				<circle class="st4" cx="1152.11" cy="1491.57" r="79.9"/>
				<circle class="st4" cx="1350.67" cy="1491.57" r="79.9"/>
				<circle class="st4" cx="1549.24" cy="1494.19" r="79.9"/>
				<g>
					<linearGradient id="SVGID_7_" gradientUnits="userSpaceOnUse" x1="1260.9136" y1="1390.9302" x2="982.3568" y2="1655.2882">
						<stop  offset="0" style="stop-color:#A737D5"/>
						<stop  offset="1" style="stop-color:#EF497A"/>
					</linearGradient>
					<path class="st10" d="M1199.58,1474.69c2.47,6.01,3.85,12.6,3.85,19.5c0,28.34-22.98,51.32-51.32,51.32
						c-28.34,0-51.32-22.98-51.32-51.32c0-28.34,22.98-51.32,51.32-51.32c0.87,0,1.73,0.02,2.59,0.07v-13.01
						c-0.86-0.03-1.72-0.06-2.59-0.06c-35.52,0-64.32,28.8-64.32,64.32c0,35.52,28.8,64.32,64.32,64.32
						c35.52,0,64.32-28.8,64.32-64.32c0-8.75-1.75-17.08-4.91-24.69L1199.58,1474.69z"/>
					<linearGradient id="SVGID_8_" gradientUnits="userSpaceOnUse" x1="1440.6842" y1="1407.0052" x2="1193.4072" y2="1641.6779">
						<stop  offset="0" style="stop-color:#A737D5"/>
						<stop  offset="1" style="stop-color:#EF497A"/>
					</linearGradient>
					<path class="st11" d="M1377.15,1537.61c-7.92,5-17.29,7.9-27.34,7.9c-28.34,0-51.32-22.98-51.32-51.32
						c0-28.34,22.98-51.32,51.32-51.32c0.87,0,1.73,0.02,2.59,0.07v-13.01c-0.86-0.03-1.72-0.06-2.59-0.06
						c-35.52,0-64.32,28.8-64.32,64.32c0,35.52,28.8,64.32,64.32,64.32c12.4,0,23.97-3.51,33.79-9.59L1377.15,1537.61z"/>
					<linearGradient id="SVGID_9_" gradientUnits="userSpaceOnUse" x1="1640.9723" y1="1407.4956" x2="1393.6948" y2="1642.1688">
						<stop  offset="0" style="stop-color:#A737D5"/>
						<stop  offset="1" style="stop-color:#EF497A"/>
					</linearGradient>
					<path class="st12" d="M1592.07,1523.04c-9.24,13.56-24.8,22.47-42.44,22.47c-28.34,0-51.32-22.98-51.32-51.32
						c0-28.34,22.98-51.32,51.32-51.32c0.87,0,1.73,0.02,2.59,0.07v-13.01c-0.86-0.03-1.72-0.06-2.59-0.06
						c-35.52,0-64.32,28.8-64.32,64.32c0,35.52,28.8,64.32,64.32,64.32c21.98,0,41.37-11.02,52.98-27.84L1592.07,1523.04z"/>
				</g>
				<g class="st13">
					<path class="st4" d="M1217.21,1605.32h-130.2c-8.17,0-14.8,6.62-14.8,14.8c0,8.17,6.62,14.8,14.8,14.8h130.2
						c8.17,0,14.8-6.62,14.8-14.8C1232,1611.94,1225.38,1605.32,1217.21,1605.32z"/>
					<path class="st4" d="M1415.77,1605.32h-130.2c-8.17,0-14.8,6.62-14.8,14.8c0,8.17,6.62,14.8,14.8,14.8h130.2
						c8.17,0,14.8-6.62,14.8-14.8C1430.57,1611.94,1423.95,1605.32,1415.77,1605.32z"/>
					<path class="st4" d="M1484.14,1634.91h130.2c8.17,0,14.8-6.62,14.8-14.8c0-8.17-6.62-14.8-14.8-14.8h-130.2
						c-8.17,0-14.8,6.62-14.8,14.8C1469.34,1628.28,1475.97,1634.91,1484.14,1634.91z"/>
					<path class="st4" d="M1217.21,1651.35h-130.2c-8.17,0-14.8,6.62-14.8,14.8v87.14c0,8.17,6.62,14.8,14.8,14.8h130.2
						c8.17,0,14.8-6.62,14.8-14.8v-87.14C1232,1657.98,1225.38,1651.35,1217.21,1651.35z"/>
					<path class="st4" d="M1415.77,1651.35h-130.2c-8.17,0-14.8,6.62-14.8,14.8v87.14c0,8.17,6.62,14.8,14.8,14.8h130.2
						c8.17,0,14.8-6.62,14.8-14.8v-87.14C1430.57,1657.98,1423.95,1651.35,1415.77,1651.35z"/>
					<path class="st4" d="M1614.34,1651.35h-130.2c-8.17,0-14.8,6.62-14.8,14.8v87.14c0,8.17,6.62,14.8,14.8,14.8h130.2
						c8.17,0,14.8-6.62,14.8-14.8v-87.14C1629.14,1657.98,1622.51,1651.35,1614.34,1651.35z"/>
				</g>
			</g>
		</g>
		<g>
			<g>
				
					<linearGradient id="SVGID_10_" gradientUnits="userSpaceOnUse" x1="-741.1788" y1="1909.2454" x2="-1273.6023" y2="2755.6626" gradientTransform="matrix(-1 0 0 1 1250.9535 0)">
					<stop  offset="0" style="stop-color:#CB236D"/>
					<stop  offset="1" style="stop-color:#4C246D"/>
				</linearGradient>
				<path class="st14" d="M3006.13,1571.86c0,0,201.01,111.35,217.64,299.8c16.63,188.45,1.38,970.65-401.69,1163.17
					s-936.6,148.15-1140.83,127.1c-204.22-21.05-317.46-159.84-342.75-255.4c-25.29-95.56-66.15-451.55,148.69-566.38
					c214.84-114.83,440.49-290.75,665.96-462.05C2378.62,1706.8,2765.03,1427.17,3006.13,1571.86z"/>
				
					<linearGradient id="SVGID_11_" gradientUnits="userSpaceOnUse" x1="-244.767" y1="2511.2134" x2="-48.0937" y2="2716.6279" gradientTransform="matrix(-1 0 0 1 1250.9535 0)">
					<stop  offset="0" style="stop-color:#2B3582"/>
					<stop  offset="1" style="stop-color:#150E42"/>
				</linearGradient>
				<path class="st15" d="M1550.54,2405.13c0,0,54.25,2.87,60.9,114.48c0,0-125.8,112.77-295.73,139.61
					c-12.76,2.02,17.83-87.09,22.43-99.15C1360.03,2502.64,1428.95,2465.66,1550.54,2405.13z"/>
				
					<linearGradient id="SVGID_12_" gradientUnits="userSpaceOnUse" x1="-548.3242" y1="2307.4541" x2="-343.5458" y2="1536.1233" gradientTransform="matrix(-1 0 0 1 1250.9535 0)">
					<stop  offset="0" style="stop-color:#53D8FF"/>
					<stop  offset="1" style="stop-color:#3840F7"/>
				</linearGradient>
				<path class="st16" d="M2161.52,2273.89h-114.48c0,0-351.38-388.07-581.84-427.22c0,0-160.42,204.78,8.54,587.4
					c13.59,30.78,51.61,44.45,79.97,26.34c8.48-5.42,14.57-12.68,18.27-21.78l-13.59-326.7c0,0,299.73,262.15,351.83,312.74
					C1962.32,2475.26,2227.13,2444.43,2161.52,2273.89z"/>
				
					<linearGradient id="SVGID_13_" gradientUnits="userSpaceOnUse" x1="16.1315" y1="3026.8044" x2="388.1462" y2="3299.8425" gradientTransform="matrix(-1 0 0 1 1250.9535 0)">
					<stop  offset="0" style="stop-color:#2B3582"/>
					<stop  offset="1" style="stop-color:#150E42"/>
				</linearGradient>
				<path class="st17" d="M1054.71,3088.66c47.98-42.04,124.41-89.21,234.77-102.74l37.32,22.83c0,0-23.8,35.1-67.27,72.18
					c-39.96,23.21-101.65,54.64-152.8,61.45C1056.99,3149,1049.65,3118.95,1054.71,3088.66z"/>
				
					<linearGradient id="SVGID_14_" gradientUnits="userSpaceOnUse" x1="193.8945" y1="2881.5898" x2="-588.8151" y2="2242.2258" gradientTransform="matrix(-1 0 0 1 1250.9535 0)">
					<stop  offset="0" style="stop-color:#FDF53F"/>
					<stop  offset="0.6645" style="stop-color:#E57A58"/>
					<stop  offset="1" style="stop-color:#D93C65"/>
				</linearGradient>
				<path class="st18" d="M1338.15,2560.07c29.56,9.57,42.55,51.44,117.55,23.75c72.56-26.79,126.5-61.34,154.25-81.26
					c0.62,5.4,1.14,11.04,1.5,17.05c0,0-132.64,126.17-302.57,153.01c-12.76,2.02-22.87-10.72-18.27-22.79
					C1298.85,2628.17,1313.73,2595.33,1338.15,2560.07z"/>
				
					<linearGradient id="SVGID_15_" gradientUnits="userSpaceOnUse" x1="406.2133" y1="3340.0198" x2="-376.4949" y2="2700.657" gradientTransform="matrix(-1 0 0 1 1250.9535 0)">
					<stop  offset="0" style="stop-color:#FDF53F"/>
					<stop  offset="0.6645" style="stop-color:#E57A58"/>
					<stop  offset="1" style="stop-color:#D93C65"/>
				</linearGradient>
				<path class="st19" d="M1018.57,3124.55c9.46-10.75,21.53-23.1,36.14-35.9c-5.05,30.3,2.28,60.35,52.01,53.72
					c51.15-6.81,112.85-38.25,152.8-61.45c-50.08,42.71-126.27,88.04-222.44,85.38C1015.72,3165.71,1004.45,3140.6,1018.57,3124.55z
					"/>
				
					<linearGradient id="SVGID_16_" gradientUnits="userSpaceOnUse" x1="21.4754" y1="2508.9316" x2="-756.6832" y2="2802.4473" gradientTransform="matrix(-1 0 0 1 1250.9535 0)">
					<stop  offset="0" style="stop-color:#53D8FF"/>
					<stop  offset="1" style="stop-color:#3840F7"/>
				</linearGradient>
				<path class="st20" d="M2157.33,2356.72l-536.12,5.8c0,0-306.16,253.31-361.7,639.56c0,0-9.22,28.41,46.12,33.27
					c0,0,185.1-120.9,305.8-334.64c147.99-262.08,441.18-144.11,441.18-144.11c96.33-69.45,232.46-83.6,335.01-106.73
					L2157.33,2356.72z"/>
				
					<linearGradient id="SVGID_17_" gradientUnits="userSpaceOnUse" x1="-584.9" y1="2017.7117" x2="-837.4604" y2="2318.0537" gradientTransform="matrix(-1 0 0 1 1250.9535 0)">
					<stop  offset="0" style="stop-color:#F9B776"/>
					<stop  offset="1" style="stop-color:#F47960"/>
				</linearGradient>
				<path class="st21" d="M2144.67,1924.85c0,0-57.71,289.24-340.5,403.66l-100.59-11.85l-23.74,37.85l235.95,7.52
					c0,0,201.69-79.88,308.55-297.56C2227.88,2057.28,2286.72,1935.77,2144.67,1924.85z"/>
				
					<linearGradient id="SVGID_18_" gradientUnits="userSpaceOnUse" x1="-1295.1663" y1="1461.1736" x2="-890.5142" y2="2880.8318" gradientTransform="matrix(-1 0 0 1 1250.9535 0)">
					<stop  offset="0" style="stop-color:#FDF53F"/>
					<stop  offset="0.6645" style="stop-color:#E57A58"/>
					<stop  offset="1" style="stop-color:#D93C65"/>
				</linearGradient>
				<path class="st22" d="M2113.75,2352c0,0,65.63-178.4,79.74-351.75c0,0-48.01-41.26-78.02-59.07
					c-9.72-5.77-13.39-17.96-8.48-28.14c22.06-45.71,155.5-225.18,165.49-227.68c54.33-13.56,277.13-119.5,434.06,95.15
					c67.35,92.12-13.36,375.69-318.9,669.36l-63.03,12.06L2113.75,2352z"/>
				
					<linearGradient id="SVGID_19_" gradientUnits="userSpaceOnUse" x1="-879.3958" y1="2290.9875" x2="-374.5681" y2="1600.356" gradientTransform="matrix(-1 0 0 1 1250.9535 0)">
					<stop  offset="0" style="stop-color:#F9B776"/>
					<stop  offset="1" style="stop-color:#F47960"/>
				</linearGradient>
				<path class="st23" d="M2366.64,2039.34c0,0-182.34,215.9-415.47,247.47c0,0-60.25-54.93-105.05-35.32
					c-44.8,19.61-106.23,106.17-106.23,106.17h299.33c0,0,283.03-9.97,424.46-181.6C2452.3,2116,2418.22,2080.12,2366.64,2039.34z"
					/>
				
					<linearGradient id="SVGID_20_" gradientUnits="userSpaceOnUse" x1="-1188.2134" y1="1718.6617" x2="-1169.6183" y2="1551.3059" gradientTransform="matrix(-1 0 0 1 1250.9535 0)">
					<stop  offset="0" style="stop-color:#F9B776"/>
					<stop  offset="1" style="stop-color:#F47960"/>
				</linearGradient>
				<path class="st24" d="M2473.01,1533.93l39.9,133.07c1.83,6.1-0.43,12.7-5.68,16.3c-19.21,13.16-69.41,39.32-138.28,13.89
					c-7.88-2.91-13.27-10.26-13.96-18.63l-9.46-115.92L2473.01,1533.93z"/>
				<g>
					
						<linearGradient id="SVGID_21_" gradientUnits="userSpaceOnUse" x1="-1089.0334" y1="1572.678" x2="-1170.9941" y2="1302.3519" gradientTransform="matrix(-1 0 0 1 1250.9535 0)">
						<stop  offset="0" style="stop-color:#F9B776"/>
						<stop  offset="1" style="stop-color:#F47960"/>
					</linearGradient>
					<path class="st25" d="M2239.39,1426.17c0,0,19.62,137.94,72.6,180.36s156.22,10.48,191.09-93.51l-69.48-177.8L2239.39,1426.17z
						"/>
					
						<linearGradient id="SVGID_22_" gradientUnits="userSpaceOnUse" x1="-1162.8291" y1="1077.2563" x2="-1086.798" y2="1510.915" gradientTransform="matrix(-1 0 0 1 1250.9535 0)">
						<stop  offset="0" style="stop-color:#2B3582"/>
						<stop  offset="1" style="stop-color:#150E42"/>
					</linearGradient>
					<path class="st26" d="M2441.44,1450.27c-4.03,1.3-8.25-1.28-8.88-5.47c-1.91-12.73-6.69-37.93-16.35-55.1
						c0,0,5.06-18.1-45.74,9.24c-50.79,27.34-127.08,67.5-172,43.58c-43.79-23.32-88.15-140.66,27.58-118.92
						c4.4,0.83,8.45-2.68,8.12-7.15c-1.42-19.29,0.49-63.65,45.42-77.89c42.04-13.33,19.47,8.27,28.96,19.73
						c2.79,3.37-3.52-11.48,56.22-2.79c20.5,2.98,46.8-51.44,97.15-29.25c41.48,18.28,47.93,43.82,47.24,59.74
						c-0.22,5.16,5.01,8.65,9.7,6.49c12.7-5.85,33.13-8.89,52.7,15.63c27.06,33.9-11.61,63.3-23.21,71.01
						c-1.9,1.26-3.08,3.36-3.1,5.64c-0.11,17.63-2.85,94.53-41.4,137.91c-3.34,3.76-9.51,2.65-11.45-1.98l-29.68-70.71
						c-1.38-3.28-5.04-4.97-8.43-3.87L2441.44,1450.27z"/>
					
						<linearGradient id="SVGID_23_" gradientUnits="userSpaceOnUse" x1="-1173.9276" y1="1598.4177" x2="-1255.8887" y2="1328.0907" gradientTransform="matrix(-1 0 0 1 1250.9535 0)">
						<stop  offset="0" style="stop-color:#F9B776"/>
						<stop  offset="1" style="stop-color:#F47960"/>
					</linearGradient>
					<path class="st27" d="M2440.81,1464.63c0,0,18.12-73.81,45.65-49.85c27.53,23.97-7.18,76.71-38.71,86.77L2440.81,1464.63z"/>
				</g>
				
					<linearGradient id="SVGID_24_" gradientUnits="userSpaceOnUse" x1="-504.0044" y1="2134.7332" x2="-119.8554" y2="2134.7332" gradientTransform="matrix(-1 0 0 1 1250.9535 0)">
					<stop  offset="0" style="stop-color:#2B3582"/>
					<stop  offset="1" style="stop-color:#150E42"/>
				</linearGradient>
				<path class="st28" d="M1754.96,2374.41l-134.4-448.21c-5.48-18.29-21.73-31.26-40.77-32.56l-181.46-12.42
					c-18.44-1.26-32.16,16.76-26.04,34.2l150.25,428.04c4.84,13.79,17.22,23.54,31.76,25l178.69,19.84L1754.96,2374.41z"/>
				
					<linearGradient id="SVGID_25_" gradientUnits="userSpaceOnUse" x1="-181.9361" y1="1971.8203" x2="-415.7242" y2="2209.0215" gradientTransform="matrix(-1 0 0 1 1250.9535 0)">
					<stop  offset="0" style="stop-color:#FDF53F"/>
					<stop  offset="1" style="stop-color:#D93C65"/>
				</linearGradient>
				<path class="st29" d="M1507.09,2078.11c10.03,20.25,27.36,32.12,38.7,26.5c11.34-5.62,12.4-26.59,2.37-46.85
					c-10.03-20.25-27.36-32.12-38.7-26.5C1498.11,2036.88,1497.05,2057.85,1507.09,2078.11z"/>
				
					<linearGradient id="SVGID_26_" gradientUnits="userSpaceOnUse" x1="-457.3796" y1="2302.6548" x2="-764.5474" y2="2386.8416" gradientTransform="matrix(-1 0 0 1 1250.9535 0)">
					<stop  offset="0" style="stop-color:#2B3582"/>
					<stop  offset="1" style="stop-color:#150E42"/>
				</linearGradient>
				<path class="st30" d="M1732.98,2388.31c0.29,0,0.58-0.01,0.88-0.02l380.75-19.24c9.41-0.47,16.66-8.49,16.18-17.9
					c-0.47-9.42-8.53-16.82-17.91-16.18l-380.75,19.24c-9.41,0.47-16.66,8.49-16.18,17.9
					C1716.42,2381.22,1723.96,2388.31,1732.98,2388.31z"/>
				<path class="st31" d="M2193.48,2003.26c1.66,0,3.03-1.36,3.02-3.03c-0.26-79.54,30.44-185.14,30.76-186.2
					c0.47-1.6-0.44-3.28-2.05-3.75c-1.63-0.46-3.29,0.44-3.76,2.05c-0.32,1.06-31.26,107.49-30.99,187.92
					C2190.46,2001.92,2191.82,2003.26,2193.48,2003.26z"/>
				<path class="st31" d="M2366.63,2042.35c0.89,0,1.78-0.39,2.38-1.15c0.83-1.06,84.11-106.92,112.74-179.47
					c0.62-1.56-0.15-3.31-1.7-3.92c-1.56-0.61-3.31,0.14-3.92,1.7c-28.31,71.73-111.03,176.89-111.88,177.95
					c-1.03,1.31-0.81,3.21,0.5,4.24C2365.31,2042.14,2365.98,2042.35,2366.63,2042.35z"/>
				<path class="st31" d="M2483.82,2204.21l2.25-0.96c120.48-51.58,194.89-195.42,195.63-196.86c0.76-1.49,0.16-3.31-1.32-4.07
					c-1.45-0.75-3.28-0.18-4.06,1.32c-0.73,1.42-73.25,141.57-190.39,193.08l-12.41-17.54c-0.98-1.37-2.87-1.68-4.21-0.73
					c-1.37,0.97-1.68,2.85-0.73,4.21L2483.82,2204.21z"/>
			</g>
		</g>
		<g>
			<g>
				<g>
					<linearGradient id="SVGID_27_" gradientUnits="userSpaceOnUse" x1="3053.2219" y1="2805.4976" x2="3311.5542" y2="1915.0764">
						<stop  offset="0" style="stop-color:#53D8FF"/>
						<stop  offset="0.4242" style="stop-color:#4898FC"/>
						<stop  offset="1" style="stop-color:#3840F7"/>
					</linearGradient>
					<path class="st32" d="M3099.77,3074.3c0,0,219.29-506.6,53.26-1040.31c-1.08-3.48-7.25-2.82-7.71,0.84
						C3105.31,2357.63,3093.37,2707.22,3099.77,3074.3z"/>
					<path class="st4" d="M3100.65,3063.64c-0.25,0-0.51-0.03-0.76-0.1c-1.5-0.42-2.37-1.98-1.95-3.48
						c38.75-137.66,53.5-372.03,59.05-544.4c6.02-186.86,2.82-343.1,2.78-344.65c-0.03-1.56,1.2-2.84,2.76-2.88
						c0.02,0,0.04,0,0.06,0c1.53,0,2.78,1.22,2.82,2.76c0.03,1.56,3.24,157.95-2.79,344.96c-5.56,172.68-20.35,407.54-59.26,545.75
						C3103.01,3062.83,3101.88,3063.64,3100.65,3063.64z"/>
				</g>
				<g>
					<linearGradient id="SVGID_28_" gradientUnits="userSpaceOnUse" x1="2928.2795" y1="2691.488" x2="3087.6758" y2="1790.0735">
						<stop  offset="0" style="stop-color:#53D8FF"/>
						<stop  offset="0.4242" style="stop-color:#4898FC"/>
						<stop  offset="1" style="stop-color:#3840F7"/>
					</linearGradient>
					<path class="st33" d="M3049.56,2991.74c0,0,135.47-621.58-120.55-1250.58c-1.67-4.11-7.75-2.9-7.6,1.51
						C2935.21,2132.24,2981.71,2552.1,3049.56,2991.74z"/>
					<path class="st4" d="M3048.18,2978.34c-0.09,0-0.18-0.01-0.27-0.01c-1.55-0.15-2.68-1.52-2.54-3.07
						c30.42-320.93-85.48-1062.66-86.65-1070.12c-0.24-1.54,0.81-2.98,2.35-3.22c1.53-0.26,2.98,0.81,3.22,2.34
						c1.17,7.46,117.18,749.89,86.69,1071.53C3050.84,2977.24,3049.61,2978.34,3048.18,2978.34z"/>
				</g>
				<g>
					<linearGradient id="SVGID_29_" gradientUnits="userSpaceOnUse" x1="3016.1045" y1="2941.2097" x2="2718.2363" y2="1885.1332">
						<stop  offset="0" style="stop-color:#53D8FF"/>
						<stop  offset="0.4242" style="stop-color:#4898FC"/>
						<stop  offset="1" style="stop-color:#3840F7"/>
					</linearGradient>
					<path class="st34" d="M3028.06,3160.28c0,0,64.9-542.24-257.51-1030.22c-2.11-3.19-7.98-1.24-7.33,2.44
						C2819.99,2457.1,2912.39,2802.05,3028.06,3160.28z"/>
					<path class="st4" d="M3024.9,3149.71c-1.53,0-2.79-1.22-2.82-2.76c-2.87-142.97-58.17-375.64-104.06-545.64
						c-49.74-184.3-99.45-336.71-99.95-338.23c-0.48-1.48,0.32-3.07,1.8-3.55c1.48-0.47,3.07,0.33,3.55,1.8
						c0.5,1.52,50.25,154.04,100.03,338.48c45.97,170.32,101.38,403.48,104.26,547.03c0.03,1.55-1.2,2.84-2.76,2.87
						C3024.94,3149.71,3024.92,3149.71,3024.9,3149.71z"/>
				</g>
			</g>
			<g>
				<linearGradient id="SVGID_30_" gradientUnits="userSpaceOnUse" x1="3313.2302" y1="2600.0234" x2="2917.4863" y2="3122.1853">
					<stop  offset="0" style="stop-color:#A737D5"/>
					<stop  offset="1" style="stop-color:#EF497A"/>
				</linearGradient>
				<path class="st35" d="M2894.63,2861.5h298.05c19.54,0,33.99,18.17,29.6,37.21c-19.07,82.62-41.92,166.44-88.69,251.53
					c-8.64,15.72-25.08,25.57-43.02,25.57h-97.26c-17.66,0-33.87-9.7-42.24-25.26c-37.46-69.62-73.51-152.61-91.3-246.8
					C2855.63,2881.84,2872.32,2861.5,2894.63,2861.5z"/>
			</g>
		</g>
	</g>
</g>
</svg>
